<?xml version="1.0" encoding="utf-8"?>
<!-- Generator: Adobe Illustrator 14.0.0, SVG Export Plug-In . SVG Version: 6.00 Build 43363)  -->
<!DOCTYPE svg PUBLIC "-//W3C//DTD SVG 1.1//EN" "http://www.w3.org/Graphics/SVG/1.1/DTD/svg11.dtd">
<svg version="1.1" id="Ebene_1" xmlns="http://www.w3.org/2000/svg" xmlns:xlink="http://www.w3.org/1999/xlink" x="0px" y="0px"
	 width="1980px" height="1000px" viewBox="0 -350 1980 1000" enable-background="new 0 -350 1980 1000" xml:space="preserve">
<g id="Ebene_2">
	<rect x="-57.5" y="-469.5" fill="#E4E9EA" stroke="#000000" width="2154.217" height="1140"/>
</g>
<g>
	<rect x="207.102" y="-395.013" fill="none" width="1890.383" height="1160.079"/>
	<g>
		<g>
			<g opacity="0.2">
				<defs>
					<rect id="SVGID_1_" x="765.801" y="265.999" opacity="0.2" width="1286.916" height="844.675"/>
				</defs>
				<clipPath id="SVGID_2_">
					<use xlink:href="#SVGID_1_"  overflow="visible"/>
				</clipPath>
				<g clip-path="url(#SVGID_2_)">
					<g>
						<defs>
							<path id="SVGID_3_" d="M1927.305,870.155c-18.994-50.156-13.774-105.229-3.735-157.54
								c10.038-52.308,24.707-104.418,23.937-157.529c-1.263-86.744-46.429-172.237-120.178-226.247
								c-73.753-54.015-174.716-75.3-266.511-55.647c-58.052,12.431-112.622,40.221-172.17,42.481
								c-61.146,2.32-119.24-22.55-179.432-32.723c-142.91-24.149-296.086,42.047-376.052,153.718s-87.563,261.468-29.039,383.883
								c58.525,122.419,178.506,216.322,315.914,259.797c137.401,43.484,290.318,38.444,428.162-3.857
								c67.586-20.739,131.943-50.09,200.486-67.971c68.547-17.878,144.25-23.476,209.399,3.066l94.629-45.998
								C1995.03,964.167,1946.295,920.315,1927.305,870.155"/>
						</defs>
						<clipPath id="SVGID_4_">
							<use xlink:href="#SVGID_3_"  overflow="visible"/>
						</clipPath>
						
							<linearGradient id="SVGID_5_" gradientUnits="userSpaceOnUse" x1="614.2461" y1="350.4182" x2="616.7673" y2="350.4182" gradientTransform="matrix(510.577 0 0 510.577 -312854 -178227.2188)">
							<stop  offset="0" style="stop-color:#D1D5DE"/>
							<stop  offset="1" style="stop-color:#DBDBDB"/>
						</linearGradient>
						<rect x="745.602" y="253.538" clip-path="url(#SVGID_4_)" fill="url(#SVGID_5_)" width="1307.115" height="870.293"/>
					</g>
				</g>
			</g>
			<g>
				<g>
					<g opacity="0.2">
						<defs>
							<rect id="SVGID_6_" x="-469.061" y="150" opacity="0.2" width="1286.917" height="844.678"/>
						</defs>
						<clipPath id="SVGID_7_">
							<use xlink:href="#SVGID_6_"  overflow="visible"/>
						</clipPath>
						<g clip-path="url(#SVGID_7_)">
							<g>
								<defs>
									<path id="SVGID_8_" d="M692.441,754.16c-18.993-50.16-13.771-105.234-3.734-157.54
										c10.037-52.309,24.709-104.419,23.935-157.531c-1.26-86.747-46.428-172.235-120.178-226.251
										c-73.751-54.009-174.714-75.297-266.508-55.642c-58.05,12.426-112.622,40.222-172.171,42.479
										c-61.142,2.32-119.244-22.549-179.433-32.719c-142.907-24.156-296.083,42.048-376.05,153.719
										c-79.964,111.666-87.561,261.46-29.036,383.882c58.523,122.416,178.505,216.314,315.91,259.796
										c137.403,43.482,290.323,38.44,428.162-3.857c67.587-20.739,131.94-50.093,200.489-67.971
										c68.545-17.884,144.249-23.479,209.397,3.066l94.631-46.001C760.171,848.17,711.432,804.32,692.441,754.16"/>
								</defs>
								<clipPath id="SVGID_9_">
									<use xlink:href="#SVGID_8_"  overflow="visible"/>
								</clipPath>
								
									<linearGradient id="SVGID_10_" gradientUnits="userSpaceOnUse" x1="612.7085" y1="349.9397" x2="615.2292" y2="349.9397" gradientTransform="matrix(510.577 0 0 510.577 -313303.5 -178098.7188)">
									<stop  offset="0" style="stop-color:#D1D5DE"/>
									<stop  offset="1" style="stop-color:#DBDBDB"/>
								</linearGradient>
								<rect x="-489.259" y="137.541" clip-path="url(#SVGID_9_)" fill="url(#SVGID_10_)" width="1307.111" height="870.294"/>
							</g>
						</g>
					</g>
					<g>
						<g>
							<g>
								<defs>
									<rect id="SVGID_11_" x="1175.432" y="164.779" width="922.053" height="600.3"/>
								</defs>
								<clipPath id="SVGID_12_">
									<use xlink:href="#SVGID_11_"  overflow="visible"/>
								</clipPath>
								<path clip-path="url(#SVGID_12_)" fill="#E4ECED" d="M2097.484,175.292v589.786h-922.053
									c3.098-24.872,8.769-49.469,17.289-73.41c28.758-81.045,91.141-152.02,170.232-195.449
									c41.791-22.973,88.271-38.262,136.915-43.248c63.341-6.521,134.745,1.348,183.569-36.356
									c29.364-22.691,43.629-57.329,61.933-88.352c52.12-88.26,150.299-155.822,259.153-162.921
									C2035.758,163.298,2067.413,166.895,2097.484,175.292"/>
							</g>
						</g>
					</g>
					<g>
						<g id="Ebene_1_1_">
							<g>
								<defs>
									<rect id="SVGID_13_" x="613.735" y="395.138" width="1224.792" height="329.258"/>
								</defs>
								<clipPath id="SVGID_14_">
									<use xlink:href="#SVGID_13_"  overflow="visible"/>
								</clipPath>
								<g clip-path="url(#SVGID_14_)">
									<g>
										<defs>
											<path id="SVGID_15_" d="M1838.527,724.396H613.735c3.68-31.788,12.376-63.203,25.003-92.945
												c29.541-69.42,88.622-135.593,168.8-146.125c34.581-4.548,68.556,1.625,101.452,12.854
												c47.131,16.077,99.937,2.97,132.272-32.46c22.836-24.984,52.201-44.986,85.193-57.004
												c61.099-22.298,133.336-16.848,189.67,14.268c16.711,9.234,32.034,20.533,46.831,32.554
												c42.092,34.149,79.923,74.106,132.932,88.955c55.125,15.404,115.363-0.071,171.85,10.322
												c82.797,15.245,143.644,84.779,167.688,159.28C1836.535,717.504,1837.568,720.936,1838.527,724.396"/>
										</defs>
										<clipPath id="SVGID_16_">
											<use xlink:href="#SVGID_15_"  overflow="visible"/>
										</clipPath>
										
											<linearGradient id="SVGID_17_" gradientUnits="userSpaceOnUse" x1="613.9937" y1="350.2688" x2="616.5142" y2="350.2688" gradientTransform="matrix(485.9301 0 0 485.9301 -297744.2813 -169650.8438)">
											<stop  offset="0" style="stop-color:#D1D5DE"/>
											<stop  offset="1" style="stop-color:#DBDBDB"/>
										</linearGradient>
										<rect x="613.735" y="386.418" clip-path="url(#SVGID_16_)" fill="url(#SVGID_17_)" width="1224.792" height="337.979"/>
									</g>
								</g>
							</g>
							<g>
								<g>
									<g>
										<defs>
											<rect id="SVGID_18_" x="1683.693" y="178.8" width="58.979" height="54.288"/>
										</defs>
										<clipPath id="SVGID_19_">
											<use xlink:href="#SVGID_18_"  overflow="visible"/>
										</clipPath>
										<path clip-path="url(#SVGID_19_)" fill="#EAEAEA" d="M1742.674,205.944c0,14.99-13.204,27.145-29.49,27.145
											c-16.287,0-29.488-12.154-29.488-27.145c0-14.992,13.201-27.144,29.488-27.144
											C1729.47,178.8,1742.674,190.951,1742.674,205.944"/>
									</g>
								</g>
							</g>
							<g>
								<g>
									<g>
										<defs>
											<rect id="SVGID_20_" x="124.997" y="-269.683" width="29.489" height="27.146"/>
										</defs>
										<clipPath id="SVGID_21_">
											<use xlink:href="#SVGID_20_"  overflow="visible"/>
										</clipPath>
										<path clip-path="url(#SVGID_21_)" fill="#DFEFF7" d="M154.486-256.113c0,7.498-6.602,13.577-14.746,13.577
											c-8.144,0-14.744-6.079-14.744-13.577c0-7.492,6.601-13.57,14.744-13.57C147.885-269.683,154.486-263.605,154.486-256.113
											"/>
									</g>
								</g>
							</g>
							<path fill="none" stroke="#D8D8D8" stroke-miterlimit="10" d="M978.402,933.359c-17.333-58.233-29.982-121.692-5.748-177.803
								c31.748-73.513,119.845-114.684,205.174-124.115c85.33-9.431,171.246,6.158,256.941,12.156
								c85.694,5.997,177.479,0.807,248.106-44.265c97.957-62.503,130.106-184.314,218.499-257.922
								c73.706-61.378,184.96-81.614,278.487-50.657"/>
							<path fill="none" stroke="#D8D8D8" stroke-miterlimit="10" d="M1043.306,933.359
								c-16.396-55.085-28.359-115.119-5.437-168.197c30.036-69.545,113.37-108.485,194.088-117.41
								c80.723-8.921,161.996,5.827,243.063,11.501c81.067,5.675,167.888,0.764,234.705-41.871
								c92.67-59.133,123.082-174.36,206.697-243.993c69.723-58.06,174.967-77.204,263.439-47.919"/>
							<path fill="none" stroke="#D8D8D8" stroke-miterlimit="10" d="M1108.209,933.359
								c-15.457-51.941-26.741-108.546-5.125-158.591c28.321-65.572,106.896-102.291,183.003-110.704
								c76.112-8.416,152.747,5.492,229.185,10.84c76.434,5.35,158.303,0.721,221.303-39.481
								c87.375-55.75,116.052-164.402,194.892-230.056c65.742-54.747,164.978-72.795,248.398-45.183"/>
							<path fill="none" stroke="#D8D8D8" stroke-miterlimit="10" d="M1173.114,933.359
								c-14.524-48.794-25.124-101.971-4.816-148.986c26.605-61.603,100.424-96.098,171.924-104.003
								c71.498-7.901,143.491,5.165,215.3,10.189c71.808,5.026,148.715,0.676,207.897-37.093
								c82.085-52.377,109.024-154.443,183.091-216.121c61.76-51.431,154.986-68.39,233.354-42.445"/>
							<path fill="none" stroke="#D8D8D8" stroke-miterlimit="10" d="M1238.02,933.359c-13.593-45.651-23.504-95.396-4.506-139.382
								c24.89-57.63,93.943-89.898,160.838-97.296c66.891-7.392,134.24,4.826,201.42,9.53c67.179,4.699,139.131,0.63,194.498-34.698
								c76.789-49.004,101.991-144.49,171.285-202.192c57.774-48.112,144.993-63.979,218.31-39.704"/>
							<path fill="none" stroke="#D8D8D8" stroke-miterlimit="10" d="M188.377,68.169c-12.655,40.561,9.877,84.41,42.552,114.015
								c32.67,29.604,74.49,48.774,112.923,71.785c38.431,23.011,75.583,52.375,90.121,92.4
								c25.872,71.21-26.943,143.683-52.126,215.103c-38.098,108.058-8.406,234.03,74.914,317.838"/>
							<path fill="none" stroke="#D8D8D8" stroke-miterlimit="10" d="M158.475,76.543c-12.656,40.561,9.877,84.411,42.551,114.013
								c32.671,29.608,74.494,48.777,112.923,71.789c38.431,23.013,75.583,52.375,90.123,92.398
								c25.871,71.205-26.947,143.683-52.125,215.104c-38.101,108.055-8.408,234.029,74.912,317.838"/>
							<path fill="none" stroke="#D8D8D8" stroke-miterlimit="10" d="M128.572,84.915c-12.655,40.561,9.878,84.414,42.552,114.018
								s74.493,48.771,112.923,71.782c38.431,23.013,75.584,52.376,90.124,92.399c25.87,71.211-26.947,143.685-52.126,215.104
								c-38.101,108.057-8.408,234.029,74.914,317.837"/>
							<path fill="none" stroke="#D8D8D8" stroke-miterlimit="10" d="M98.67,93.289c-12.656,40.562,9.878,84.413,42.552,114.016
								c32.671,29.608,74.493,48.775,112.923,71.787c38.431,23.011,75.583,52.374,90.123,92.397
								c25.872,71.205-26.946,143.683-52.128,215.104c-38.098,108.055-8.405,234.028,74.914,317.838"/>
						</g>
					</g>
				</g>
			</g>
		</g>
	</g>
</g>
</svg>
