<?xml version="1.0" encoding="utf-8"?>
<!-- Generator: Adobe Illustrator 14.0.0, SVG Export Plug-In . SVG Version: 6.00 Build 43363)  -->
<!DOCTYPE svg PUBLIC "-//W3C//DTD SVG 1.1//EN" "http://www.w3.org/Graphics/SVG/1.1/DTD/svg11.dtd">
<svg version="1.1" xmlns="http://www.w3.org/2000/svg" xmlns:xlink="http://www.w3.org/1999/xlink" x="0px" y="0px" width="577px"
	 height="534px" viewBox="0 0 577 534" enable-background="new 0 0 577 534" xml:space="preserve">
<g id="Ebene_4">
	<g id="Ebene_6">
		<linearGradient id="SVGID_1_" gradientUnits="userSpaceOnUse" x1="190.1968" y1="350.8623" x2="196.8432" y2="321.6173">
			<stop  offset="0" style="stop-color:#FFF5DE"/>
			<stop  offset="1" style="stop-color:#F6E8BD"/>
		</linearGradient>
		<polygon fill="url(#SVGID_1_)" points="321.704,349.549 66.751,350.145 66.751,316.695 321.704,316.1 		"/>
		<linearGradient id="SVGID_2_" gradientUnits="userSpaceOnUse" x1="39.8345" y1="315.7529" x2="46.6553" y2="285.7407">
			<stop  offset="0" style="stop-color:#FFF5DE"/>
			<stop  offset="1" style="stop-color:#F6E8BD"/>
		</linearGradient>
		<polygon fill="url(#SVGID_2_)" points="67.717,350.145 14.913,301.229 15.014,267.887 67.717,316.695 		"/>
	</g>
	<linearGradient id="SVGID_3_" gradientUnits="userSpaceOnUse" x1="195.9248" y1="301.7295" x2="194.4583" y2="259.7333">
		<stop  offset="0" style="stop-color:#FAA1D9"/>
		<stop  offset="0.8182" style="stop-color:#F7C2D1"/>
	</linearGradient>
	<path fill="url(#SVGID_3_)" d="M322.349,327.549c0,0-57.718-2.186-70.891,0.166c-13.174,2.352-32.974-2.395-60.58-3.857
		c-27.607-1.463-74.726,2.926-85.717,4.2c-10.99,1.274-37.101,0.087-37.101,0.087v-93.45c0,0,105.971,4.367,133.128-0.312
		s121.16-0.284,121.16-0.284V327.549z"/>
	<linearGradient id="SVGID_4_" gradientUnits="userSpaceOnUse" x1="42.8101" y1="285.6211" x2="41.1492" y2="238.0617">
		<stop  offset="0.2364" style="stop-color:#FAA1D9"/>
		<stop  offset="0.2788" style="stop-color:#FAA5D8"/>
		<stop  offset="0.7758" style="stop-color:#F7C2D1"/>
	</linearGradient>
	<path fill="url(#SVGID_4_)" d="M68.215,328.239c0,0-6.948-14.654-16.197-20.003c-9.249-5.35-21.674-13.344-23.025-22.331
		c-1.352-8.987-13.583-6.582-13.583-6.582l0.101-93.342c0,0,12.91,16.649,18.902,17.505c5.992,0.855,11.582,17.896,20.014,20.535
		s13.789,10.769,13.789,10.769V328.239z"/>
	<linearGradient id="SVGID_5_" gradientUnits="userSpaceOnUse" x1="196.0034" y1="349.9209" x2="194.537" y2="307.9275">
		<stop  offset="0" style="stop-color:#FFFFFF;stop-opacity:0"/>
		<stop  offset="1" style="stop-color:#F7DBFF;stop-opacity:0.44"/>
	</linearGradient>
	<path fill="url(#SVGID_5_)" d="M322.823,375.725c0,0-56.932-2.186-70.146,0.166c-13.214,2.352-33.076-2.395-60.769-3.857
		c-27.693-1.463-74.958,2.926-85.983,4.201c-11.024,1.273-37.216,0.086-37.216,0.086v-93.449c0,0,106.301,4.367,133.543-0.312
		c27.241-4.679,119.605-0.284,119.605-0.284L322.823,375.725z"/>
	<linearGradient id="SVGID_6_" gradientUnits="userSpaceOnUse" x1="42.8101" y1="333.6211" x2="41.1492" y2="286.0617">
		<stop  offset="0" style="stop-color:#FFFFFF;stop-opacity:0"/>
		<stop  offset="1" style="stop-color:#F7D6FF;stop-opacity:0.44"/>
	</linearGradient>
	<path fill="url(#SVGID_6_)" d="M68.215,376.239c0,0-6.948-14.654-16.197-20.003c-9.249-5.35-21.674-13.344-23.025-22.33
		c-1.352-8.988-13.583-6.582-13.583-6.582l0.101-93.343c0,0,12.91,16.649,18.902,17.505c5.992,0.855,11.582,17.896,20.014,20.535
		s13.789,10.769,13.789,10.769V376.239z"/>
	<g id="Ebene_5">
		<ellipse fill="#F2A1F2" cx="50.889" cy="243.514" rx="4.74" ry="3.965"/>
		<ellipse fill="#E0A6F2" cx="49.248" cy="266.736" rx="6.016" ry="5.664"/>
		<ellipse fill="#F2A3F2" cx="226.262" cy="253.709" rx="4.74" ry="3.965"/>
		<ellipse fill="#F2B0F2" cx="170.244" cy="254.92" rx="10.938" ry="6.23"/>
		<path fill="#F2B0F2" d="M35.669,235.054c-1.436,2.141-5.685,1.656-9.487-1.081c-3.803-2.737-5.722-6.691-4.286-8.832
			c1.437-2.141,5.684-1.658,9.487,1.08C35.186,228.958,37.106,232.913,35.669,235.054z"/>
		<ellipse fill="#F28CF2" cx="136.825" cy="269.514" rx="4.74" ry="3.965"/>
		<ellipse fill="#E8B0F2" cx="88.36" cy="303" rx="9.298" ry="7.08"/>
		<ellipse fill="#E8B0F2" cx="301.004" cy="298.644" rx="9.298" ry="7.08"/>
		<ellipse fill="#F2A3F2" cx="282.774" cy="257.862" rx="4.74" ry="3.965"/>
		<ellipse fill="#F299F2" cx="89.26" cy="249.933" rx="4.74" ry="3.965"/>
		<path fill="#F273F2" d="M193.813,295.729c0,2.92-2.776,4.286-6.199,4.286s-6.199-2.366-6.199-5.286s2.776-5.287,6.199-5.287
			S193.813,292.809,193.813,295.729z"/>
		<ellipse fill="#F273F2" cx="248.167" cy="294.592" rx="12.367" ry="5.699"/>
		<ellipse fill="#F273F2" cx="136.752" cy="305.553" rx="9.662" ry="6.985"/>
		<path fill="#F273F2" d="M62.267,296.624c-0.837,2.011-4.814,2.169-8.882,0.353c-4.068-1.815-6.688-4.918-5.851-6.929
			c0.837-2.011,4.813-2.169,8.881-0.353S63.104,294.613,62.267,296.624z"/>
		<path fill="#F273F2" d="M31.227,264.41c-0.609,1.462-2.746,1.914-4.774,1.009c-2.027-0.905-3.178-2.824-2.569-4.286
			c0.608-1.462,2.745-1.914,4.773-1.009C30.684,261.029,31.835,262.948,31.227,264.41z"/>
		<g id="Ebene_3">
			<linearGradient id="SVGID_7_" gradientUnits="userSpaceOnUse" x1="177.9878" y1="268.1255" x2="212.3992" y2="148.1184">
				<stop  offset="0" style="stop-color:#FFDED1"/>
				<stop  offset="1" style="stop-color:#E69196"/>
			</linearGradient>
			<polygon fill="url(#SVGID_7_)" points="322.187,236.049 68.2,236.645 68.2,180.195 322.187,179.6 			"/>
			<linearGradient id="SVGID_8_" gradientUnits="userSpaceOnUse" x1="29.7729" y1="226.6255" x2="53.9227" y2="142.4053">
				<stop  offset="0" style="stop-color:#FFDED1"/>
				<stop  offset="1" style="stop-color:#E69196"/>
			</linearGradient>
			<polygon fill="url(#SVGID_8_)" points="68.2,237.645 15.396,188.729 15.496,131.387 68.2,180.195 			"/>
			<path fill="#F2EDF2" d="M28.458,169.465c14.377,3.246,9.268,5.22,10.595,7.453c-1.512-2.545-13.963-9.069-19.383-10.293
				C22.485,167.643,25.415,168.59,28.458,169.465"/>
			<path fill="#F2EDF2" d="M283.98,198.129c22.512-3.768,22.459,2.548,29.45,5.277c-7.967-3.109-36.896-5.755-45.382-4.335
				C273.428,198.94,278.738,198.627,283.98,198.129"/>
			<path fill="#F2EDF2" d="M198.612,208.06c39.613-1.079,35.412,0.521,45.656,2.571c-51.176-10.237-102.684,3.666-82.126,1.12
				c7.597-0.286,14.785-2.611,22.143-3.2"/>
			<path fill="#F2EDF2" d="M112.178,198.653c28.001-0.188,24.873,1.606,31.864,4.336c-7.967-3.11-49.448-2.363-57.934-0.943
				c5.378-0.13,10.689-2.705,15.932-3.204"/>
			<path fill="#F2EDF2" d="M44,198.68c31.182,6.748,14.333,3.728,21.242,7.321"/>
			<path fill="#F2EDF2" d="M89.155,224.77c45.118-6.725,21.071-2.443,32.182-1.761"/>
		</g>
		<g id="Ebene_7">
			<linearGradient id="SVGID_9_" gradientUnits="userSpaceOnUse" x1="177.0215" y1="437.793" x2="211.4329" y2="317.7859">
				<stop  offset="0" style="stop-color:#FFC4D1"/>
				<stop  offset="1" style="stop-color:#E66396"/>
			</linearGradient>
			<polygon fill="url(#SVGID_9_)" points="321.221,405.717 67.235,406.313 67.235,349.863 321.221,349.268 			"/>
			<linearGradient id="SVGID_10_" gradientUnits="userSpaceOnUse" x1="28.8076" y1="395.9531" x2="52.9574" y2="311.7329">
				<stop  offset="0" style="stop-color:#FFC4D1"/>
				<stop  offset="1" style="stop-color:#E66396"/>
			</linearGradient>
			<polygon fill="url(#SVGID_10_)" points="67.235,406.972 14.43,358.056 14.53,300.714 67.235,349.522 			"/>
		</g>
	</g>
</g>
<g id="Ebene_1_Kopie">
	<line fill="none" stroke="#C1272D" x1="320.078" y1="356" x2="67.118" y2="356"/>
	<line fill="none" stroke="#C1272D" x1="320.078" y1="362.285" x2="67.118" y2="362.285"/>
	<line fill="none" stroke="#C1272D" x1="320.078" y1="368.571" x2="67.118" y2="368.571"/>
	<line fill="none" stroke="#C1272D" x1="320.078" y1="374.856" x2="67.118" y2="374.856"/>
	<line fill="none" stroke="#C1272D" x1="320.078" y1="381.144" x2="67.118" y2="381.144"/>
	<line fill="none" stroke="#C1272D" x1="320.078" y1="387.429" x2="67.118" y2="387.429"/>
	<line fill="none" stroke="#C1272D" x1="320.078" y1="393.715" x2="67.118" y2="393.715"/>
	<line fill="none" stroke="#C1272D" x1="320.078" y1="400" x2="67.118" y2="400"/>
</g>
<g id="Ebene_9">
</g>
<g id="Ebene_1_Kopie_Kopie">
	<line fill="none" stroke="#C1272D" x1="67.099" y1="356.396" x2="14.977" y2="308.396"/>
	<line fill="none" stroke="#C1272D" x1="67.099" y1="362.681" x2="14.977" y2="314.681"/>
	<line fill="none" stroke="#C1272D" x1="67.099" y1="368.967" x2="14.977" y2="320.967"/>
	<line fill="none" stroke="#C1272D" x1="67.099" y1="375.252" x2="14.977" y2="327.252"/>
	<line fill="none" stroke="#C1272D" x1="67.099" y1="381.539" x2="14.977" y2="333.539"/>
	<line fill="none" stroke="#C1272D" x1="67.099" y1="387.824" x2="14.977" y2="339.824"/>
	<line fill="none" stroke="#C1272D" x1="67.099" y1="394.11" x2="14.977" y2="346.11"/>
	<line fill="none" stroke="#C1272D" x1="67.099" y1="400.396" x2="14.977" y2="352.396"/>
</g>
<g id="Ebene_1">
	<polygon fill="#FFDBAD" points="321.804,146.235 67.843,146.852 15.156,97.993 269.92,97.97 	"/>
	<linearGradient id="SVGID_11_" gradientUnits="userSpaceOnUse" x1="190.688" y1="180.8198" x2="197.3186" y2="151.6447">
		<stop  offset="0" style="stop-color:#FFF5DE"/>
		<stop  offset="1" style="stop-color:#F6E8BD"/>
	</linearGradient>
	<polygon fill="url(#SVGID_11_)" points="321.704,179.549 67.717,180.145 67.717,146.695 321.704,146.1 	"/>
	<linearGradient id="SVGID_12_" gradientUnits="userSpaceOnUse" x1="39.8345" y1="145.7529" x2="46.6552" y2="115.7409">
		<stop  offset="0" style="stop-color:#FFF5DE"/>
		<stop  offset="1" style="stop-color:#F6E8BD"/>
	</linearGradient>
	<polygon fill="url(#SVGID_12_)" points="67.717,180.145 14.913,131.229 15.014,97.887 67.717,146.695 	"/>
	<linearGradient id="SVGID_13_" gradientUnits="userSpaceOnUse" x1="190.5444" y1="433.3438" x2="196.4525" y2="407.3479">
		<stop  offset="0" style="stop-color:#F2F5FC"/>
		<stop  offset="1" style="stop-color:#EDE8FF"/>
	</linearGradient>
	<polygon fill="url(#SVGID_13_)" points="321.121,429.001 67.134,429.597 67.134,406.147 321.121,405.552 	"/>
	<linearGradient id="SVGID_14_" gradientUnits="userSpaceOnUse" x1="39.4766" y1="399.6602" x2="45.3268" y2="373.9186">
		<stop  offset="0" style="stop-color:#F2F5FC"/>
		<stop  offset="1" style="stop-color:#EDE8FF"/>
	</linearGradient>
	<polygon fill="url(#SVGID_14_)" points="67.141,430.01 14.336,381.094 14.437,357.752 67.141,406.561 	"/>
</g>
<g id="Ebene_1_Kopie_2">
	<polygon fill="#FFDBAD" points="321.804,146.235 67.843,146.852 15.156,97.993 269.92,97.97 	"/>
	<linearGradient id="SVGID_15_" gradientUnits="userSpaceOnUse" x1="190.688" y1="180.8198" x2="197.3186" y2="151.6447">
		<stop  offset="0" style="stop-color:#FFF5DE"/>
		<stop  offset="1" style="stop-color:#F6E8BD"/>
	</linearGradient>
	<polygon fill="url(#SVGID_15_)" points="321.704,179.549 67.717,180.145 67.717,146.695 321.704,146.1 	"/>
	<linearGradient id="SVGID_16_" gradientUnits="userSpaceOnUse" x1="39.8345" y1="145.7529" x2="46.6552" y2="115.7409">
		<stop  offset="0" style="stop-color:#FFF5DE"/>
		<stop  offset="1" style="stop-color:#F6E8BD"/>
	</linearGradient>
	<polygon fill="url(#SVGID_16_)" points="67.717,180.145 14.913,131.229 15.014,97.887 67.717,146.695 	"/>
	<polygon fill="#8A1200" points="321.121,450.001 67.134,450.597 67.134,427.147 321.121,426.552 	"/>
	<polygon fill="#8A1200" points="67.141,451.01 14.336,402.094 14.437,378.752 67.141,427.561 	"/>
	<g id="_x36_30_2_">
		<path d="M376.861,195c-0.275,0-0.51-0.096-0.701-0.288c-0.192-0.192-0.288-0.426-0.288-0.702v-10.62
			c0-0.276,0.096-0.51,0.288-0.702c0.191-0.192,0.426-0.288,0.701-0.288h5.887c0.264,0,0.495,0.096,0.693,0.288
			c0.197,0.192,0.297,0.426,0.297,0.702s-0.1,0.513-0.297,0.711c-0.198,0.198-0.43,0.297-0.693,0.297h-4.878v3.294h4.194
			c0.264,0,0.494,0.099,0.692,0.297c0.198,0.198,0.298,0.432,0.298,0.702s-0.097,0.504-0.289,0.702
			c-0.191,0.198-0.426,0.297-0.701,0.297h-4.194v3.312h4.878c0.264,0,0.495,0.099,0.693,0.297c0.197,0.198,0.297,0.432,0.297,0.702
			s-0.1,0.504-0.297,0.702c-0.198,0.198-0.43,0.297-0.693,0.297h-5.832l-0.036-0.018L376.861,195z"/>
		<path d="M388.031,198.087c-0.198,0.198-0.433,0.297-0.703,0.297c-0.27,0-0.5-0.099-0.692-0.297
			c-0.192-0.198-0.288-0.423-0.288-0.675v-10.458c0-0.264,0.093-0.489,0.279-0.675c0.186-0.186,0.408-0.279,0.666-0.279
			s0.479,0.072,0.666,0.216c0.186,0.144,0.297,0.318,0.333,0.522c0.756-0.492,1.571-0.738,2.448-0.738
			c1.199,0,2.226,0.444,3.078,1.332c0.852,0.888,1.277,1.95,1.277,3.186s-0.426,2.289-1.277,3.159
			c-0.853,0.871-1.879,1.305-3.078,1.305c-0.925,0-1.729-0.246-2.412-0.738v3.168C388.328,197.664,388.229,197.889,388.031,198.087z
			 M392.432,188.7c-0.468-0.492-1.038-0.738-1.71-0.738s-1.239,0.25-1.7,0.747c-0.463,0.498-0.693,1.119-0.693,1.863
			c0,0.745,0.234,1.326,0.701,1.746c0.457,0.504,1.018,0.756,1.684,0.756s1.236-0.252,1.71-0.756s0.711-1.101,0.711-1.791
			C393.134,189.837,392.9,189.228,392.432,188.7z"/>
		<path d="M400.189,183.372v0.378c0,0.276-0.093,0.51-0.279,0.702c-0.186,0.192-0.414,0.288-0.684,0.288s-0.501-0.096-0.693-0.288
			c-0.191-0.192-0.287-0.426-0.287-0.702v-0.378c0-0.264,0.096-0.492,0.287-0.684c0.192-0.192,0.424-0.288,0.693-0.288
			s0.498,0.093,0.684,0.279C400.097,182.865,400.189,183.096,400.189,183.372z M398.525,186.297
			c0.186-0.186,0.416-0.279,0.692-0.279s0.507,0.093,0.692,0.279c0.187,0.187,0.279,0.423,0.279,0.711v7.02
			c0,0.276-0.093,0.507-0.279,0.693c-0.186,0.186-0.414,0.279-0.684,0.279s-0.501-0.096-0.693-0.288
			c-0.191-0.192-0.287-0.42-0.287-0.684v-7.02C398.246,186.72,398.338,186.483,398.525,186.297z"/>
		<path d="M411.439,194.028c0,0.264-0.096,0.492-0.288,0.684c-0.192,0.192-0.414,0.288-0.666,0.288s-0.466-0.075-0.64-0.225
			c-0.174-0.15-0.285-0.333-0.332-0.549c-0.756,0.516-1.572,0.774-2.448,0.774c-1.212,0-2.244-0.441-3.097-1.323
			c-0.852-0.882-1.277-1.938-1.277-3.168c0-1.229,0.426-2.289,1.277-3.177c0.853-0.888,1.885-1.332,3.097-1.332
			c0.888,0,1.692,0.252,2.412,0.756v-3.384c0-0.264,0.096-0.492,0.288-0.684c0.191-0.192,0.423-0.288,0.693-0.288
			c0.27,0,0.5,0.096,0.692,0.288s0.288,0.42,0.288,0.684V194.028z M407.065,193.038c0.659,0,1.227-0.249,1.7-0.747
			c0.475-0.498,0.712-1.092,0.712-1.782c0-0.689-0.234-1.287-0.702-1.791c-0.469-0.504-1.038-0.756-1.71-0.756
			c-0.673,0-1.242,0.252-1.71,0.756c-0.469,0.504-0.702,1.102-0.702,1.791c0,0.69,0.237,1.284,0.711,1.782
			S406.405,193.038,407.065,193.038z"/>
		<path d="M423.266,190.266c0,0.264-0.088,0.477-0.262,0.639c-0.174,0.162-0.404,0.243-0.693,0.243h-5.723
			c0.107,0.516,0.311,0.912,0.611,1.188c0.384,0.444,0.945,0.711,1.684,0.801c0.737,0.09,1.377-0.057,1.916-0.441
			c0.18-0.191,0.42-0.288,0.721-0.288c0.299,0,0.51,0.078,0.63,0.234c0.335,0.372,0.335,0.762,0,1.17
			c-0.864,0.792-1.923,1.185-3.177,1.179c-1.254-0.006-2.305-0.447-3.15-1.323s-1.275-1.932-1.287-3.168
			c0.012-1.236,0.441-2.295,1.287-3.177c0.846-0.882,1.869-1.323,3.068-1.323c1.2,0,2.211,0.393,3.033,1.179s1.27,1.785,1.342,2.997
			V190.266z M418.928,187.71c-0.697,0.036-1.254,0.252-1.674,0.648c-0.421,0.396-0.673,0.816-0.757,1.26h5.095
			c-0.108-0.42-0.4-0.828-0.873-1.224C420.244,187.998,419.646,187.77,418.928,187.71z"/>
		<path d="M428.071,187.08c0.276-0.324,0.653-0.585,1.134-0.783c0.48-0.198,0.918-0.294,1.314-0.288
			c0.396,0.006,0.687,0.099,0.873,0.279c0.186,0.18,0.278,0.399,0.278,0.657c0,0.258-0.093,0.483-0.278,0.675
			c-0.187,0.192-0.412,0.288-0.676,0.288c-1.115,0-1.998,0.906-2.646,2.718v3.42c0,0.264-0.097,0.489-0.288,0.675
			c-0.192,0.186-0.423,0.279-0.693,0.279c-0.27,0-0.498-0.093-0.684-0.279c-0.187-0.186-0.279-0.411-0.279-0.675v-7.092
			c0-0.264,0.093-0.486,0.279-0.666c0.186-0.18,0.414-0.27,0.684-0.27c0.271,0,0.501,0.09,0.693,0.27
			c0.191,0.18,0.288,0.402,0.288,0.666V187.08z"/>
		<path d="M434.982,195l-0.18-0.018c-0.229-0.06-0.414-0.174-0.558-0.342s-0.216-0.366-0.216-0.594v-7.074
			c0-0.276,0.092-0.507,0.279-0.693c0.186-0.186,0.41-0.279,0.674-0.279c0.42,0,0.709,0.18,0.865,0.54
			c0.611-0.36,1.253-0.54,1.926-0.54c1.151,0,2.094,0.414,2.826,1.242c0.707-0.828,1.613-1.242,2.717-1.242
			c1.104,0,2.022,0.369,2.754,1.107c0.732,0.738,1.099,1.629,1.099,2.673v4.266c0,0.264-0.093,0.489-0.278,0.675
			c-0.188,0.186-0.412,0.279-0.676,0.279s-0.492-0.093-0.684-0.279c-0.192-0.186-0.288-0.411-0.288-0.675v-4.266
			c0-0.516-0.181-0.954-0.54-1.314c-0.36-0.36-0.789-0.54-1.287-0.54s-0.928,0.174-1.287,0.522s-0.553,0.774-0.576,1.278v4.32
			c0,0.264-0.093,0.489-0.279,0.675c-0.186,0.186-0.408,0.279-0.666,0.279s-0.485-0.096-0.684-0.288
			c-0.197-0.192-0.297-0.414-0.297-0.666v-4.32c-0.012-0.492-0.197-0.915-0.559-1.269c-0.359-0.354-0.789-0.531-1.287-0.531
			s-0.926,0.18-1.286,0.54c-0.36,0.36-0.54,0.798-0.54,1.314v4.266l-0.018,0.126v0.054l-0.055,0.108v0.09
			C435.691,194.808,435.391,195,434.982,195z"/>
		<path d="M453.109,183.372v0.378c0,0.276-0.094,0.51-0.279,0.702c-0.187,0.192-0.414,0.288-0.685,0.288s-0.501-0.096-0.692-0.288
			c-0.192-0.192-0.289-0.426-0.289-0.702v-0.378c0-0.264,0.097-0.492,0.289-0.684c0.191-0.192,0.422-0.288,0.692-0.288
			s0.498,0.093,0.685,0.279C453.016,182.865,453.109,183.096,453.109,183.372z M451.443,186.297
			c0.186-0.186,0.417-0.279,0.693-0.279c0.275,0,0.507,0.093,0.693,0.279c0.186,0.187,0.279,0.423,0.279,0.711v7.02
			c0,0.276-0.094,0.507-0.279,0.693c-0.187,0.186-0.414,0.279-0.685,0.279s-0.501-0.096-0.692-0.288
			c-0.192-0.192-0.289-0.42-0.289-0.684v-7.02C451.164,186.72,451.258,186.483,451.443,186.297z"/>
		<path d="M461.767,186.99c0.216,0.144,0.351,0.345,0.405,0.603c0.054,0.258,0.015,0.501-0.117,0.729
			c-0.145,0.216-0.346,0.351-0.604,0.405c-0.258,0.054-0.5,0.003-0.729-0.153c-0.672-0.444-1.227-0.666-1.665-0.666
			s-0.795,0.108-1.071,0.324c-0.191,0.132-0.287,0.249-0.287,0.351s0.015,0.177,0.045,0.225c0.029,0.048,0.092,0.102,0.188,0.162
			c0.265,0.18,0.702,0.324,1.313,0.432l0.019,0.018h0.019c0.635,0.12,1.217,0.3,1.746,0.54c0.527,0.24,0.918,0.57,1.17,0.99
			s0.377,0.834,0.377,1.242c0,0.84-0.377,1.536-1.133,2.088c-0.697,0.48-1.477,0.72-2.341,0.72
			c-1.116-0.012-2.185-0.426-3.204-1.242c-0.191-0.156-0.303-0.369-0.332-0.639c-0.031-0.27,0.038-0.501,0.207-0.693
			c0.155-0.216,0.371-0.335,0.647-0.36c0.276-0.024,0.51,0.048,0.702,0.216c0.648,0.54,1.308,0.804,1.979,0.792
			c0.456,0,0.864-0.114,1.224-0.342c0.217-0.18,0.324-0.333,0.324-0.459s-0.018-0.213-0.054-0.261
			c-0.024-0.06-0.103-0.132-0.233-0.216c-0.289-0.204-0.769-0.372-1.44-0.504h-0.019c-0.636-0.12-1.19-0.294-1.664-0.522
			c-0.475-0.228-0.855-0.558-1.144-0.99c-0.204-0.335-0.306-0.713-0.306-1.134c0-0.78,0.354-1.44,1.062-1.98
			c0.648-0.444,1.39-0.666,2.224-0.666S460.807,186.33,461.767,186.99z"/>
	</g>
	<g id="_x36_30_4_">
		<path d="M383.252,341.166c0-0.912-1.057-1.566-3.168-1.962h-0.036c-0.937-0.181-1.746-0.433-2.43-0.756
			c-0.685-0.324-1.186-0.741-1.503-1.251c-0.318-0.51-0.477-1.035-0.477-1.575c0-1.044,0.459-1.901,1.377-2.574
			c0.918-0.672,1.977-1.008,3.176-1.008c0.528,0,1.068,0.09,1.621,0.271c0.551,0.18,0.963,0.348,1.232,0.504
			s0.627,0.377,1.071,0.666c0.204,0.144,0.333,0.342,0.387,0.594s0.012,0.482-0.126,0.693c-0.139,0.209-0.333,0.342-0.585,0.396
			s-0.485,0.009-0.702-0.136c-0.564-0.383-1.064-0.672-1.503-0.863s-0.903-0.288-1.396-0.288c-0.791,0-1.439,0.187-1.943,0.558
			c-0.504,0.373-0.756,0.769-0.756,1.188c0,0.204,0.048,0.378,0.145,0.522c0.335,0.552,1.241,0.965,2.717,1.242h0.037
			c1.008,0.203,1.836,0.455,2.483,0.756c1.487,0.731,2.231,1.74,2.231,3.023c0,1.116-0.492,2.031-1.476,2.745
			s-2.118,1.071-3.401,1.071c-1.572-0.012-3.108-0.612-4.608-1.801c-0.192-0.155-0.304-0.365-0.333-0.63
			c-0.03-0.264,0.033-0.491,0.189-0.684c0.155-0.192,0.365-0.304,0.629-0.333s0.492,0.039,0.685,0.207
			c1.151,0.936,2.298,1.398,3.438,1.386c0.899,0,1.629-0.207,2.187-0.621S383.252,341.646,383.252,341.166z"/>
		<path d="M395.042,341.256c0,1.02-0.376,1.898-1.125,2.637c-0.75,0.738-1.638,1.107-2.664,1.107s-1.908-0.365-2.646-1.098
			c-0.738-0.732-1.107-1.614-1.107-2.646v-4.302c0-0.252,0.093-0.474,0.279-0.666c0.186-0.192,0.41-0.288,0.675-0.288
			c0.264,0,0.489,0.096,0.675,0.288s0.279,0.414,0.279,0.666v4.302c0,0.516,0.177,0.951,0.531,1.305
			c0.354,0.354,0.788,0.531,1.305,0.531c0.516,0,0.957-0.177,1.322-0.531c0.366-0.354,0.555-0.789,0.567-1.305v-4.302
			c0-0.252,0.09-0.474,0.271-0.666c0.18-0.192,0.398-0.288,0.656-0.288s0.486,0.096,0.684,0.288
			c0.199,0.192,0.298,0.414,0.298,0.666V341.256z"/>
		<path d="M398.713,344.027v-10.655c0-0.264,0.097-0.492,0.289-0.685c0.191-0.191,0.422-0.287,0.692-0.287s0.501,0.096,0.693,0.287
			c0.192,0.192,0.288,0.421,0.288,0.685v3.384c0.72-0.504,1.523-0.756,2.412-0.756c1.211,0,2.244,0.444,3.096,1.332
			c0.852,0.889,1.277,1.947,1.277,3.177c0,1.23-0.426,2.286-1.277,3.168S404.299,345,403.088,345c-0.877,0-1.692-0.258-2.448-0.773
			c-0.048,0.215-0.159,0.398-0.333,0.549S399.92,345,399.668,345s-0.475-0.096-0.666-0.288
			C398.81,344.52,398.713,344.292,398.713,344.027z M404.797,338.718c-0.467-0.504-1.037-0.756-1.709-0.756
			s-1.242,0.252-1.711,0.756c-0.467,0.505-0.701,1.102-0.701,1.791c0,0.69,0.236,1.284,0.711,1.782
			c0.474,0.498,1.041,0.747,1.701,0.747s1.227-0.249,1.701-0.747c0.474-0.498,0.711-1.092,0.711-1.782
			C405.5,339.819,405.266,339.223,404.797,338.718z"/>
		<path d="M411.313,343.677c-0.899-0.882-1.351-1.94-1.351-3.177s0.451-2.292,1.351-3.168s1.974-1.32,3.222-1.332
			c1.045,0,1.998,0.33,2.862,0.99c0.204,0.156,0.323,0.369,0.36,0.639c0.035,0.27-0.027,0.508-0.189,0.711
			c-0.162,0.204-0.372,0.324-0.63,0.36c-0.259,0.036-0.489-0.03-0.692-0.198c-0.529-0.384-1.125-0.576-1.791-0.576
			s-1.264,0.258-1.791,0.774c-0.529,0.517-0.793,1.122-0.793,1.817c0,0.696,0.262,1.299,0.783,1.81s1.119,0.765,1.791,0.765
			s1.271-0.191,1.801-0.576c0.191-0.155,0.42-0.216,0.684-0.18s0.477,0.156,0.639,0.359c0.162,0.205,0.225,0.436,0.189,0.693
			c-0.037,0.258-0.156,0.478-0.36,0.657c-0.888,0.636-1.843,0.954-2.862,0.954C413.287,345,412.213,344.559,411.313,343.677z"/>
		<path d="M428.233,341.256c0,1.02-0.376,1.898-1.125,2.637c-0.75,0.738-1.638,1.107-2.664,1.107s-1.908-0.365-2.646-1.098
			c-0.738-0.732-1.107-1.614-1.107-2.646v-4.302c0-0.252,0.093-0.474,0.279-0.666c0.186-0.192,0.41-0.288,0.675-0.288
			c0.264,0,0.489,0.096,0.675,0.288s0.279,0.414,0.279,0.666v4.302c0,0.516,0.177,0.951,0.531,1.305
			c0.354,0.354,0.788,0.531,1.305,0.531c0.516,0,0.957-0.177,1.322-0.531c0.366-0.354,0.555-0.789,0.567-1.305v-4.302
			c0-0.252,0.09-0.474,0.271-0.666c0.18-0.192,0.398-0.288,0.656-0.288s0.486,0.096,0.684,0.288
			c0.199,0.192,0.298,0.414,0.298,0.666V341.256z"/>
		<path d="M434.947,336c0.275,0,0.514,0.096,0.711,0.288c0.198,0.192,0.297,0.423,0.297,0.692c0,0.271-0.099,0.504-0.297,0.703
			c-0.197,0.197-0.436,0.297-0.711,0.297h-0.449v5.021c0.275,0,0.51,0.1,0.701,0.297c0.191,0.198,0.288,0.436,0.288,0.711
			c0,0.276-0.097,0.51-0.288,0.702S434.773,345,434.498,345c-0.553,0-1.023-0.195-1.414-0.585c-0.39-0.39-0.584-0.86-0.584-1.413
			v-5.021h-0.522c-0.276,0-0.511-0.096-0.702-0.289c-0.191-0.191-0.288-0.426-0.288-0.701c0-0.276,0.097-0.51,0.288-0.702
			s0.426-0.288,0.702-0.288h0.522v-2.609c0-0.276,0.099-0.511,0.297-0.703c0.197-0.191,0.435-0.287,0.711-0.287
			c0.275,0,0.51,0.096,0.701,0.287c0.192,0.192,0.289,0.427,0.289,0.703V336H434.947z"/>
		<path d="M441.067,333.372v0.378c0,0.276-0.093,0.51-0.279,0.702s-0.414,0.288-0.685,0.288c-0.27,0-0.5-0.096-0.692-0.288
			s-0.288-0.426-0.288-0.702v-0.378c0-0.264,0.096-0.492,0.288-0.685c0.192-0.191,0.423-0.287,0.692-0.287
			c0.271,0,0.498,0.093,0.685,0.279C440.975,332.865,441.067,333.096,441.067,333.372z M439.402,336.297
			c0.186-0.186,0.416-0.279,0.693-0.279c0.275,0,0.506,0.094,0.692,0.279c0.187,0.187,0.279,0.424,0.279,0.711v7.02
			c0,0.277-0.093,0.508-0.279,0.693c-0.187,0.187-0.414,0.279-0.685,0.279c-0.27,0-0.5-0.096-0.692-0.288s-0.288-0.42-0.288-0.685
			v-7.02C439.123,336.721,439.216,336.483,439.402,336.297z"/>
		<path d="M449.725,336.99c0.217,0.144,0.352,0.345,0.406,0.603c0.053,0.259,0.014,0.501-0.117,0.729
			c-0.145,0.216-0.346,0.351-0.604,0.404c-0.258,0.055-0.501,0.004-0.729-0.152c-0.672-0.443-1.228-0.666-1.666-0.666
			c-0.438,0-0.795,0.107-1.07,0.324c-0.192,0.132-0.288,0.248-0.288,0.351s0.015,0.177,0.045,0.226
			c0.03,0.047,0.093,0.102,0.188,0.162c0.265,0.18,0.703,0.323,1.314,0.432l0.018,0.018h0.019c0.636,0.12,1.218,0.301,1.746,0.54
			c0.528,0.24,0.918,0.57,1.17,0.99s0.378,0.834,0.378,1.241c0,0.841-0.378,1.537-1.134,2.088c-0.696,0.48-1.476,0.721-2.341,0.721
			c-1.115-0.012-2.184-0.426-3.203-1.242c-0.192-0.156-0.303-0.369-0.333-0.639s0.038-0.501,0.207-0.693
			c0.155-0.216,0.372-0.336,0.647-0.359c0.276-0.024,0.51,0.048,0.702,0.216c0.648,0.54,1.308,0.804,1.979,0.792
			c0.457,0,0.865-0.114,1.225-0.342c0.217-0.181,0.324-0.334,0.324-0.459c0-0.127-0.018-0.213-0.055-0.262
			c-0.023-0.06-0.102-0.132-0.233-0.216c-0.288-0.204-0.769-0.372-1.44-0.504h-0.018c-0.637-0.12-1.191-0.294-1.665-0.522
			c-0.474-0.228-0.854-0.558-1.144-0.99c-0.203-0.335-0.306-0.713-0.306-1.133c0-0.78,0.354-1.44,1.062-1.98
			c0.648-0.443,1.39-0.666,2.224-0.666S448.766,336.33,449.725,336.99z"/>
	</g>
	<g id="_x36_30_3_">
		<path d="M378.872,289.01v-10.62c0-0.276,0.096-0.51,0.288-0.702c0.191-0.192,0.426-0.288,0.701-0.288h2.125
			c1.739,0,3.222,0.615,4.445,1.845c1.225,1.23,1.836,2.715,1.836,4.455c0,1.74-0.611,3.225-1.836,4.455
			c-1.224,1.23-2.706,1.845-4.445,1.845h-2.125c-0.275,0-0.51-0.096-0.701-0.288C378.968,289.52,378.872,289.286,378.872,289.01z
			 M380.87,279.398v8.604h1.116c1.188-0.012,2.198-0.435,3.033-1.269c0.834-0.834,1.25-1.845,1.25-3.033s-0.416-2.202-1.25-3.042
			c-0.835-0.84-1.846-1.26-3.033-1.26H380.87z"/>
		<path d="M399.716,285.266c0,0.264-0.087,0.477-0.261,0.639c-0.174,0.162-0.405,0.243-0.693,0.243h-5.724
			c0.108,0.516,0.312,0.912,0.612,1.188c0.383,0.444,0.944,0.711,1.683,0.801c0.737,0.09,1.377-0.057,1.917-0.441
			c0.18-0.191,0.42-0.288,0.72-0.288s0.511,0.078,0.63,0.234c0.336,0.372,0.336,0.762,0,1.17c-0.863,0.792-1.923,1.185-3.177,1.179
			c-1.254-0.006-2.304-0.447-3.149-1.323c-0.847-0.876-1.275-1.932-1.287-3.168c0.012-1.236,0.44-2.295,1.287-3.177
			c0.846-0.882,1.868-1.323,3.068-1.323c1.199,0,2.211,0.393,3.033,1.179s1.27,1.785,1.341,2.997V285.266z M395.378,282.71
			c-0.696,0.036-1.254,0.252-1.674,0.648c-0.421,0.396-0.673,0.816-0.757,1.26h5.095c-0.108-0.42-0.399-0.828-0.873-1.224
			S396.098,282.77,395.378,282.71z"/>
		<path d="M404.521,282.08c0.276-0.324,0.654-0.585,1.135-0.783c0.479-0.198,0.918-0.294,1.313-0.288
			c0.396,0.006,0.687,0.099,0.873,0.279c0.187,0.18,0.278,0.399,0.278,0.657c0,0.258-0.092,0.483-0.278,0.675
			s-0.411,0.288-0.675,0.288c-1.116,0-1.998,0.906-2.646,2.718v3.42c0,0.264-0.096,0.489-0.287,0.675
			c-0.193,0.186-0.424,0.279-0.693,0.279s-0.498-0.093-0.684-0.279c-0.188-0.186-0.279-0.411-0.279-0.675v-7.092
			c0-0.264,0.092-0.486,0.279-0.666c0.186-0.18,0.414-0.27,0.684-0.27s0.5,0.09,0.693,0.27c0.191,0.18,0.287,0.402,0.287,0.666
			V282.08z"/>
		<path d="M411.434,290l-0.18-0.018c-0.229-0.06-0.414-0.174-0.559-0.342c-0.144-0.168-0.216-0.366-0.216-0.594v-7.074
			c0-0.276,0.093-0.507,0.279-0.693c0.186-0.186,0.411-0.279,0.675-0.279c0.42,0,0.708,0.18,0.864,0.54
			c0.612-0.36,1.253-0.54,1.926-0.54c1.151,0,2.094,0.414,2.826,1.242c0.708-0.828,1.614-1.242,2.718-1.242s2.021,0.369,2.754,1.107
			c0.732,0.738,1.098,1.629,1.098,2.673v4.266c0,0.264-0.093,0.489-0.278,0.675c-0.187,0.186-0.411,0.279-0.675,0.279
			c-0.265,0-0.492-0.093-0.685-0.279s-0.288-0.411-0.288-0.675v-4.266c0-0.516-0.18-0.954-0.539-1.314
			c-0.361-0.36-0.79-0.54-1.287-0.54c-0.498,0-0.928,0.174-1.287,0.522c-0.36,0.348-0.553,0.774-0.576,1.278v4.32
			c0,0.264-0.094,0.489-0.279,0.675S417.316,290,417.059,290s-0.486-0.096-0.684-0.288c-0.198-0.192-0.297-0.414-0.297-0.666v-4.32
			c-0.013-0.492-0.198-0.915-0.559-1.269c-0.359-0.354-0.789-0.531-1.287-0.531s-0.927,0.18-1.287,0.54
			c-0.359,0.36-0.539,0.798-0.539,1.314v4.266l-0.019,0.126v0.054l-0.054,0.108v0.09C412.142,289.808,411.842,290,411.434,290z"/>
		<path d="M429.56,278.372v0.378c0,0.276-0.093,0.51-0.279,0.702s-0.414,0.288-0.685,0.288c-0.27,0-0.5-0.096-0.692-0.288
			s-0.288-0.426-0.288-0.702v-0.378c0-0.264,0.096-0.492,0.288-0.684s0.423-0.288,0.692-0.288c0.271,0,0.498,0.093,0.685,0.279
			S429.56,278.096,429.56,278.372z M427.895,281.297c0.186-0.186,0.416-0.279,0.693-0.279c0.275,0,0.506,0.093,0.692,0.279
			c0.187,0.187,0.279,0.423,0.279,0.711v7.02c0,0.276-0.093,0.507-0.279,0.693S428.866,290,428.596,290
			c-0.27,0-0.5-0.096-0.692-0.288c-0.192-0.192-0.288-0.42-0.288-0.684v-7.02C427.615,281.72,427.708,281.483,427.895,281.297z"/>
		<path d="M438.217,281.99c0.217,0.144,0.352,0.345,0.406,0.603c0.053,0.258,0.014,0.501-0.117,0.729
			c-0.145,0.216-0.346,0.351-0.604,0.405c-0.258,0.054-0.501,0.003-0.729-0.153c-0.672-0.444-1.228-0.666-1.666-0.666
			c-0.438,0-0.795,0.108-1.07,0.324c-0.192,0.132-0.288,0.249-0.288,0.351s0.015,0.177,0.045,0.225s0.093,0.102,0.188,0.162
			c0.265,0.18,0.703,0.324,1.314,0.432l0.018,0.018h0.019c0.636,0.12,1.218,0.3,1.746,0.54c0.528,0.24,0.918,0.57,1.17,0.99
			s0.378,0.834,0.378,1.242c0,0.84-0.378,1.536-1.134,2.088c-0.696,0.48-1.476,0.72-2.341,0.72
			c-1.115-0.012-2.184-0.426-3.203-1.242c-0.192-0.156-0.303-0.369-0.333-0.639s0.038-0.501,0.207-0.693
			c0.155-0.216,0.372-0.335,0.647-0.36c0.276-0.024,0.51,0.048,0.702,0.216c0.648,0.54,1.308,0.804,1.979,0.792
			c0.457,0,0.865-0.114,1.225-0.342c0.217-0.18,0.324-0.333,0.324-0.459s-0.018-0.213-0.055-0.261
			c-0.023-0.06-0.102-0.132-0.233-0.216c-0.288-0.204-0.769-0.372-1.44-0.504h-0.018c-0.637-0.12-1.191-0.294-1.665-0.522
			s-0.854-0.558-1.144-0.99c-0.203-0.335-0.306-0.713-0.306-1.134c0-0.78,0.354-1.44,1.062-1.98c0.648-0.444,1.39-0.666,2.224-0.666
			S437.258,281.33,438.217,281.99z"/>
	</g>
	<g id="_x36_30_5_">
		<path d="M384.309,381.445h-0.037c-0.348,0-0.623-0.137-0.828-0.413l-2.573-3.601v7.578c0,0.276-0.099,0.51-0.297,0.702
			S380.138,386,379.861,386c-0.275,0-0.51-0.096-0.701-0.288c-0.192-0.192-0.288-0.426-0.288-0.702v-10.619
			c0-0.276,0.096-0.511,0.288-0.703c0.191-0.191,0.426-0.287,0.701-0.287h0.055c0.348,0,0.611,0.138,0.792,0.414l3.582,4.968
			l3.582-4.968c0.204-0.276,0.474-0.414,0.81-0.414h0.019c0.276,0.012,0.513,0.113,0.711,0.306s0.297,0.42,0.297,0.685v10.619
			c0,0.264-0.099,0.495-0.297,0.693C389.213,385.9,388.977,386,388.7,386s-0.511-0.096-0.702-0.288
			c-0.192-0.192-0.288-0.426-0.288-0.702v-7.578l-2.592,3.601C384.914,381.309,384.645,381.445,384.309,381.445z"/>
		<path d="M401.229,382.256c0,1.02-0.376,1.898-1.125,2.637c-0.75,0.738-1.639,1.107-2.664,1.107c-1.026,0-1.908-0.365-2.646-1.098
			s-1.107-1.614-1.107-2.646v-4.302c0-0.252,0.094-0.474,0.279-0.666s0.411-0.288,0.676-0.288c0.264,0,0.488,0.096,0.674,0.288
			c0.187,0.192,0.279,0.414,0.279,0.666v4.302c0,0.516,0.178,0.951,0.531,1.305c0.354,0.354,0.789,0.531,1.305,0.531
			s0.957-0.177,1.323-0.531c0.366-0.354,0.555-0.789,0.567-1.305v-4.302c0-0.252,0.09-0.474,0.27-0.666s0.398-0.288,0.657-0.288
			c0.258,0,0.485,0.096,0.684,0.288s0.298,0.414,0.298,0.666V382.256z"/>
		<path d="M410.461,377.99c0.217,0.144,0.352,0.345,0.406,0.603c0.053,0.259,0.014,0.501-0.117,0.729
			c-0.145,0.216-0.346,0.351-0.604,0.404c-0.258,0.055-0.501,0.004-0.729-0.152c-0.672-0.443-1.228-0.666-1.666-0.666
			c-0.438,0-0.795,0.107-1.07,0.324c-0.192,0.132-0.288,0.248-0.288,0.351s0.015,0.177,0.045,0.226
			c0.03,0.047,0.093,0.102,0.188,0.162c0.265,0.18,0.703,0.323,1.314,0.432l0.018,0.018h0.019c0.636,0.12,1.218,0.301,1.746,0.54
			c0.528,0.24,0.918,0.57,1.17,0.99s0.378,0.834,0.378,1.241c0,0.841-0.378,1.537-1.134,2.088c-0.696,0.48-1.476,0.721-2.341,0.721
			c-1.115-0.012-2.184-0.426-3.203-1.242c-0.192-0.156-0.303-0.369-0.333-0.639s0.038-0.501,0.207-0.693
			c0.155-0.216,0.372-0.336,0.647-0.359c0.276-0.024,0.51,0.048,0.702,0.216c0.648,0.54,1.308,0.804,1.979,0.792
			c0.457,0,0.865-0.114,1.225-0.342c0.217-0.181,0.324-0.334,0.324-0.459c0-0.127-0.018-0.213-0.055-0.262
			c-0.023-0.06-0.102-0.132-0.233-0.216c-0.288-0.204-0.769-0.372-1.44-0.504H407.6c-0.637-0.12-1.191-0.294-1.665-0.522
			c-0.474-0.228-0.854-0.558-1.144-0.99c-0.203-0.335-0.306-0.713-0.306-1.133c0-0.78,0.354-1.44,1.062-1.98
			c0.648-0.443,1.39-0.666,2.224-0.666S409.502,377.33,410.461,377.99z"/>
		<path d="M415.457,385.712c-0.199,0.192-0.436,0.288-0.711,0.288c-0.277,0-0.511-0.096-0.703-0.288
			c-0.191-0.192-0.287-0.426-0.287-0.702v-10.619c0-0.276,0.096-0.511,0.287-0.703c0.192-0.191,0.426-0.287,0.703-0.287
			c0.275,0,0.512,0.096,0.711,0.287c0.197,0.192,0.297,0.427,0.297,0.703v6.228l3.689-3.69c0.191-0.191,0.426-0.287,0.702-0.287
			s0.513,0.096,0.711,0.287c0.198,0.192,0.297,0.426,0.297,0.702s-0.103,0.511-0.306,0.702l-2.7,2.7l2.772,3.329
			c0.264,0.337,0.299,0.693,0.107,1.072c-0.191,0.377-0.468,0.566-0.828,0.566c-0.359,0-0.63-0.119-0.81-0.359l-2.646-3.205
			l-0.99,0.99v1.584C415.754,385.286,415.654,385.52,415.457,385.712z"/>
		<path d="M431.936,381.266c0,0.265-0.087,0.478-0.261,0.639c-0.175,0.162-0.405,0.244-0.693,0.244h-5.724
			c0.107,0.516,0.312,0.912,0.611,1.188c0.385,0.444,0.945,0.711,1.684,0.801s1.377-0.057,1.917-0.441
			c0.18-0.191,0.42-0.287,0.72-0.287s0.51,0.078,0.631,0.234c0.335,0.371,0.335,0.762,0,1.17c-0.865,0.791-1.924,1.185-3.178,1.179
			c-1.254-0.007-2.305-0.447-3.15-1.323s-1.275-1.932-1.287-3.168c0.012-1.236,0.441-2.295,1.287-3.177s1.869-1.323,3.069-1.323
			s2.211,0.393,3.033,1.18c0.821,0.785,1.269,1.784,1.341,2.996V381.266z M427.598,378.71c-0.696,0.036-1.254,0.252-1.674,0.647
			c-0.42,0.396-0.672,0.816-0.756,1.261h5.094c-0.107-0.42-0.399-0.828-0.873-1.224C428.914,378.998,428.317,378.77,427.598,378.71z
			"/>
		<path d="M434.924,374.391c0-0.276,0.096-0.511,0.287-0.703c0.192-0.191,0.426-0.287,0.703-0.287c0.275,0,0.513,0.096,0.711,0.287
			c0.197,0.192,0.297,0.427,0.297,0.703v10.619c0,0.276-0.1,0.51-0.297,0.702c-0.198,0.192-0.436,0.288-0.711,0.288
			c-0.277,0-0.511-0.096-0.703-0.288c-0.191-0.192-0.287-0.426-0.287-0.702V374.391z"/>
		<path d="M441.224,385.046c0,0.265-0.103,0.489-0.306,0.675c-0.205,0.187-0.436,0.279-0.693,0.279s-0.48-0.093-0.666-0.279
			c-0.187-0.186-0.279-0.41-0.279-0.675v-7.092c0-0.264,0.093-0.489,0.279-0.675c0.186-0.186,0.41-0.279,0.675-0.279
			c0.407,0,0.702,0.186,0.882,0.559c0.588-0.373,1.225-0.559,1.908-0.559c1.044,0,1.932,0.369,2.664,1.107s1.098,1.617,1.098,2.637
			v4.302c0,0.265-0.09,0.489-0.27,0.675c-0.18,0.187-0.399,0.279-0.657,0.279c-0.259,0-0.483-0.093-0.675-0.279
			c-0.192-0.186-0.288-0.41-0.288-0.675v-4.302c0-0.504-0.183-0.934-0.549-1.287s-0.804-0.531-1.314-0.531
			c-0.51,0-0.938,0.178-1.286,0.531c-0.349,0.354-0.522,0.783-0.522,1.287V385.046z"/>
	</g>
	<g id="_x36_30_6_">
		<path d="M380.564,420.712c-0.192,0.192-0.427,0.288-0.703,0.288c-0.275,0-0.51-0.096-0.701-0.288
			c-0.192-0.192-0.288-0.426-0.288-0.702V409.48c0-0.264,0.096-0.496,0.288-0.693c0.191-0.198,0.426-0.297,0.701-0.297
			c0.276,0,0.511,0.099,0.703,0.297c0.191,0.197,0.287,0.43,0.287,0.693v5.166l5.832-5.851c0.192-0.192,0.426-0.288,0.703-0.288
			c0.275,0,0.51,0.096,0.701,0.288s0.288,0.427,0.288,0.702c0,0.276-0.097,0.51-0.288,0.702l-3.96,3.942l3.996,5.237
			c0.276,0.324,0.315,0.675,0.117,1.054c-0.198,0.377-0.468,0.566-0.81,0.566c-0.343,0-0.615-0.119-0.82-0.359l-3.887-5.095
			l-1.873,1.908v2.556C380.852,420.286,380.756,420.52,380.564,420.712z"/>
		<path d="M393.488,420.046c0,0.265-0.102,0.489-0.307,0.675c-0.203,0.187-0.435,0.279-0.692,0.279c-0.259,0-0.48-0.093-0.666-0.279
			c-0.187-0.186-0.279-0.41-0.279-0.675v-7.092c0-0.264,0.093-0.489,0.279-0.675c0.186-0.186,0.411-0.279,0.675-0.279
			c0.408,0,0.702,0.186,0.882,0.559c0.588-0.373,1.224-0.559,1.908-0.559c1.044,0,1.933,0.369,2.664,1.107s1.099,1.617,1.099,2.637
			v4.302c0,0.265-0.091,0.489-0.271,0.675c-0.181,0.187-0.399,0.279-0.657,0.279s-0.482-0.093-0.675-0.279
			c-0.192-0.186-0.288-0.41-0.288-0.675v-4.302c0-0.504-0.184-0.934-0.549-1.287c-0.366-0.354-0.805-0.531-1.314-0.531
			s-0.939,0.178-1.287,0.531s-0.521,0.783-0.521,1.287V420.046z"/>
		<path d="M406.502,421.055c-1.213,0-2.238-0.444-3.078-1.332c-0.84-0.889-1.26-1.951-1.26-3.187s0.423-2.302,1.269-3.195
			c0.847-0.894,1.863-1.341,3.052-1.341c1.188,0,2.198,0.453,3.032,1.359s1.251,1.982,1.251,3.23s-0.42,2.28-1.26,3.096
			C408.716,420.598,407.714,421.055,406.502,421.055z M404.773,414.646c-0.432,0.504-0.647,1.127-0.647,1.871
			s0.216,1.381,0.647,1.908c0.469,0.444,1.032,0.666,1.692,0.666c0.659,0,1.224-0.222,1.692-0.666
			c0.468-0.527,0.701-1.164,0.701-1.908s-0.233-1.367-0.701-1.871c-0.517-0.457-1.08-0.685-1.692-0.685
			S405.289,414.189,404.773,414.646z"/>
		<path d="M414.548,419.677c-0.899-0.882-1.351-1.94-1.351-3.177s0.451-2.292,1.351-3.168s1.974-1.32,3.222-1.332
			c1.045,0,1.998,0.33,2.862,0.99c0.204,0.156,0.323,0.369,0.36,0.639c0.035,0.27-0.027,0.508-0.189,0.711
			c-0.162,0.204-0.372,0.324-0.63,0.36c-0.259,0.036-0.489-0.03-0.692-0.198c-0.529-0.384-1.125-0.576-1.791-0.576
			s-1.264,0.258-1.791,0.774c-0.529,0.517-0.793,1.122-0.793,1.817c0,0.696,0.262,1.299,0.783,1.81s1.119,0.765,1.791,0.765
			s1.271-0.191,1.801-0.576c0.191-0.155,0.42-0.216,0.684-0.18s0.477,0.156,0.639,0.359c0.162,0.205,0.225,0.436,0.189,0.693
			c-0.037,0.258-0.156,0.478-0.36,0.657c-0.888,0.636-1.843,0.954-2.862,0.954C416.521,421,415.447,420.559,414.548,419.677z"/>
		<path d="M425.807,420.712c-0.198,0.192-0.432,0.288-0.702,0.288s-0.504-0.096-0.702-0.288c-0.197-0.192-0.297-0.426-0.297-0.702
			v-10.619c0-0.276,0.096-0.511,0.288-0.703c0.192-0.191,0.426-0.287,0.702-0.287c0.275,0,0.513,0.096,0.711,0.287
			c0.198,0.192,0.297,0.427,0.297,0.703v3.131c0.66-0.348,1.303-0.521,1.926-0.521c1.08,0,2.004,0.387,2.772,1.161
			c0.768,0.774,1.151,1.7,1.151,2.78v4.068c0,0.276-0.096,0.51-0.287,0.702c-0.192,0.192-0.426,0.288-0.702,0.288
			s-0.511-0.096-0.702-0.288c-0.192-0.192-0.288-0.426-0.288-0.702v-4.068c0-0.527-0.188-0.98-0.567-1.358
			c-0.377-0.378-0.836-0.573-1.377-0.585c-0.527,0.012-0.979,0.207-1.35,0.585c-0.372,0.378-0.564,0.831-0.576,1.358v4.068
			C426.104,420.286,426.005,420.52,425.807,420.712z"/>
		<path d="M443.24,416.266c0,0.265-0.088,0.478-0.262,0.639c-0.174,0.162-0.404,0.244-0.693,0.244h-5.723
			c0.107,0.516,0.311,0.912,0.611,1.188c0.384,0.444,0.945,0.711,1.684,0.801c0.737,0.09,1.377-0.057,1.916-0.441
			c0.18-0.191,0.42-0.287,0.721-0.287c0.299,0,0.51,0.078,0.63,0.234c0.335,0.371,0.335,0.762,0,1.17
			c-0.864,0.791-1.923,1.185-3.177,1.179c-1.254-0.007-2.305-0.447-3.15-1.323s-1.275-1.932-1.287-3.168
			c0.012-1.236,0.441-2.295,1.287-3.177s1.869-1.323,3.068-1.323c1.2,0,2.211,0.393,3.033,1.18c0.822,0.785,1.27,1.784,1.342,2.996
			V416.266z M438.902,413.71c-0.697,0.036-1.254,0.252-1.674,0.647c-0.421,0.396-0.673,0.816-0.757,1.261h5.095
			c-0.108-0.42-0.4-0.828-0.873-1.224C440.219,413.998,439.621,413.77,438.902,413.71z"/>
		<path d="M448.046,420.046c0,0.265-0.103,0.489-0.306,0.675c-0.205,0.187-0.436,0.279-0.693,0.279s-0.48-0.093-0.666-0.279
			c-0.187-0.186-0.279-0.41-0.279-0.675v-7.092c0-0.264,0.093-0.489,0.279-0.675c0.186-0.186,0.41-0.279,0.675-0.279
			c0.407,0,0.702,0.186,0.882,0.559c0.588-0.373,1.225-0.559,1.908-0.559c1.044,0,1.932,0.369,2.664,1.107s1.098,1.617,1.098,2.637
			v4.302c0,0.265-0.09,0.489-0.27,0.675c-0.18,0.187-0.399,0.279-0.657,0.279c-0.259,0-0.483-0.093-0.675-0.279
			c-0.192-0.186-0.288-0.41-0.288-0.675v-4.302c0-0.504-0.183-0.934-0.549-1.287s-0.804-0.531-1.314-0.531
			c-0.51,0-0.938,0.178-1.286,0.531c-0.349,0.354-0.522,0.783-0.522,1.287V420.046z"/>
	</g>
	<g id="_x36_30_7_">
		<path d="M378.998,433.391c0-0.276,0.096-0.511,0.288-0.703c0.192-0.191,0.426-0.287,0.702-0.287c0.275,0,0.513,0.096,0.711,0.287
			c0.197,0.192,0.297,0.427,0.297,0.703v10.619c0,0.276-0.1,0.51-0.297,0.702c-0.198,0.192-0.436,0.288-0.711,0.288
			c-0.276,0-0.51-0.096-0.702-0.288s-0.288-0.426-0.288-0.702V433.391z"/>
		<path d="M386.107,444.046c0,0.265-0.102,0.489-0.306,0.675c-0.204,0.187-0.435,0.279-0.692,0.279c-0.259,0-0.48-0.093-0.666-0.279
			c-0.188-0.186-0.279-0.41-0.279-0.675v-7.092c0-0.264,0.092-0.489,0.279-0.675c0.186-0.186,0.41-0.279,0.674-0.279
			c0.408,0,0.703,0.186,0.883,0.559c0.588-0.373,1.224-0.559,1.908-0.559c1.043,0,1.932,0.369,2.664,1.107
			c0.731,0.738,1.098,1.617,1.098,2.637v4.302c0,0.265-0.09,0.489-0.27,0.675c-0.181,0.187-0.4,0.279-0.658,0.279
			s-0.482-0.093-0.674-0.279c-0.193-0.186-0.289-0.41-0.289-0.675v-4.302c0-0.504-0.183-0.934-0.549-1.287
			c-0.365-0.354-0.804-0.531-1.314-0.531c-0.51,0-0.938,0.178-1.286,0.531c-0.349,0.354-0.522,0.783-0.522,1.287V444.046z"/>
		<path d="M397.143,444.046c0,0.265-0.103,0.489-0.307,0.675c-0.204,0.187-0.436,0.279-0.693,0.279s-0.48-0.093-0.666-0.279
			c-0.186-0.186-0.279-0.41-0.279-0.675v-7.092c0-0.264,0.094-0.489,0.279-0.675s0.411-0.279,0.676-0.279
			c0.407,0,0.701,0.186,0.881,0.559c0.588-0.373,1.225-0.559,1.908-0.559c1.045,0,1.933,0.369,2.664,1.107
			c0.732,0.738,1.099,1.617,1.099,2.637v4.302c0,0.265-0.091,0.489-0.271,0.675c-0.18,0.187-0.398,0.279-0.656,0.279
			c-0.259,0-0.483-0.093-0.676-0.279c-0.191-0.186-0.287-0.41-0.287-0.675v-4.302c0-0.504-0.184-0.934-0.549-1.287
			c-0.367-0.354-0.805-0.531-1.314-0.531s-0.939,0.178-1.287,0.531s-0.521,0.783-0.521,1.287V444.046z"/>
		<path d="M414.332,440.266c0,0.265-0.088,0.478-0.262,0.639c-0.174,0.162-0.404,0.244-0.693,0.244h-5.723
			c0.107,0.516,0.311,0.912,0.611,1.188c0.384,0.444,0.945,0.711,1.684,0.801c0.737,0.09,1.377-0.057,1.916-0.441
			c0.18-0.191,0.42-0.287,0.721-0.287c0.299,0,0.51,0.078,0.63,0.234c0.335,0.371,0.335,0.762,0,1.17
			c-0.864,0.791-1.923,1.185-3.177,1.179c-1.254-0.007-2.305-0.447-3.15-1.323s-1.275-1.932-1.287-3.168
			c0.012-1.236,0.441-2.295,1.287-3.177s1.869-1.323,3.068-1.323c1.2,0,2.211,0.393,3.033,1.18c0.822,0.785,1.27,1.784,1.342,2.996
			V440.266z M409.994,437.71c-0.697,0.036-1.254,0.252-1.674,0.647c-0.421,0.396-0.673,0.816-0.757,1.261h5.095
			c-0.108-0.42-0.4-0.828-0.873-1.224C411.311,437.998,410.713,437.77,409.994,437.71z"/>
		<path d="M419.138,437.08c0.276-0.324,0.653-0.585,1.134-0.783c0.48-0.197,0.918-0.294,1.314-0.288
			c0.396,0.007,0.687,0.099,0.873,0.279c0.186,0.18,0.278,0.399,0.278,0.657s-0.093,0.482-0.278,0.675
			c-0.187,0.192-0.412,0.288-0.676,0.288c-1.115,0-1.998,0.906-2.646,2.718v3.42c0,0.265-0.097,0.489-0.288,0.675
			c-0.192,0.187-0.423,0.279-0.693,0.279c-0.27,0-0.498-0.093-0.684-0.279c-0.187-0.186-0.279-0.41-0.279-0.675v-7.092
			c0-0.264,0.093-0.486,0.279-0.666c0.186-0.181,0.414-0.271,0.684-0.271c0.271,0,0.501,0.09,0.693,0.271
			c0.191,0.18,0.288,0.402,0.288,0.666V437.08z"/>
		<path d="M433.195,440.266c0,0.265-0.087,0.478-0.261,0.639c-0.175,0.162-0.405,0.244-0.693,0.244h-5.724
			c0.107,0.516,0.312,0.912,0.611,1.188c0.385,0.444,0.945,0.711,1.684,0.801s1.377-0.057,1.917-0.441
			c0.18-0.191,0.42-0.287,0.72-0.287s0.51,0.078,0.631,0.234c0.335,0.371,0.335,0.762,0,1.17c-0.865,0.791-1.924,1.185-3.178,1.179
			c-1.254-0.007-2.305-0.447-3.15-1.323s-1.275-1.932-1.287-3.168c0.012-1.236,0.441-2.295,1.287-3.177s1.869-1.323,3.069-1.323
			s2.211,0.393,3.033,1.18c0.821,0.785,1.269,1.784,1.341,2.996V440.266z M428.857,437.71c-0.696,0.036-1.254,0.252-1.674,0.647
			c-0.42,0.396-0.672,0.816-0.756,1.261h5.094c-0.107-0.42-0.399-0.828-0.873-1.224C430.174,437.998,429.577,437.77,428.857,437.71z
			"/>
		<path d="M452.258,442.75c0,0.145-0.031,0.276-0.091,0.396v0.018c-0.06,0.168-0.174,0.313-0.342,0.432
			c-1.2,0.937-2.562,1.404-4.086,1.404c-1.836,0-3.401-0.627-4.698-1.881c-1.296-1.254-1.943-2.781-1.943-4.581
			s0.647-3.333,1.943-4.599c1.297-1.267,2.862-1.899,4.698-1.899c1.548,0,2.916,0.468,4.104,1.403
			c0.227,0.169,0.359,0.396,0.396,0.685s-0.03,0.543-0.198,0.765c-0.168,0.223-0.396,0.352-0.684,0.387
			c-0.288,0.037-0.547-0.035-0.774-0.215c-0.84-0.648-1.839-0.973-2.997-0.973s-2.187,0.432-3.087,1.297
			c-0.899,0.863-1.35,1.907-1.35,3.131c0,1.225,0.452,2.269,1.358,3.133c0.906,0.863,1.983,1.296,3.231,1.296
			c0.853,0,1.674-0.228,2.466-0.685v-2.466h-2.574c-0.275,0-0.516-0.102-0.72-0.306s-0.306-0.447-0.306-0.729
			c0-0.283,0.099-0.52,0.297-0.712c0.197-0.191,0.441-0.288,0.729-0.288h3.582c0.288,0,0.534,0.097,0.738,0.288
			c0.204,0.192,0.307,0.433,0.307,0.72V442.75z"/>
		<path d="M464.209,440.266c0,0.265-0.087,0.478-0.261,0.639c-0.175,0.162-0.405,0.244-0.693,0.244h-5.724
			c0.107,0.516,0.312,0.912,0.611,1.188c0.385,0.444,0.945,0.711,1.684,0.801s1.377-0.057,1.917-0.441
			c0.18-0.191,0.42-0.287,0.72-0.287s0.51,0.078,0.631,0.234c0.335,0.371,0.335,0.762,0,1.17c-0.865,0.791-1.924,1.185-3.178,1.179
			c-1.254-0.007-2.305-0.447-3.15-1.323s-1.275-1.932-1.287-3.168c0.012-1.236,0.441-2.295,1.287-3.177s1.869-1.323,3.069-1.323
			s2.211,0.393,3.033,1.18c0.821,0.785,1.269,1.784,1.341,2.996V440.266z M459.871,437.71c-0.696,0.036-1.254,0.252-1.674,0.647
			c-0.42,0.396-0.672,0.816-0.756,1.261h5.094c-0.107-0.42-0.399-0.828-0.873-1.224C461.188,437.998,460.591,437.77,459.871,437.71z
			"/>
		<path d="M471.266,444.586c-0.217,0.216-0.349,0.33-0.396,0.342h-0.036c-0.048,0-0.09,0.018-0.126,0.055h-0.036
			c-0.048,0.012-0.11,0.018-0.188,0.018s-0.135-0.006-0.172-0.018h-0.054c-0.071-0.037-0.132-0.061-0.18-0.072
			c-0.097-0.023-0.144-0.061-0.144-0.108c-0.013-0.012-0.037-0.03-0.072-0.054c-0.108-0.096-0.162-0.156-0.162-0.18
			c-0.012-0.012-0.027-0.036-0.045-0.072c-0.019-0.036-0.033-0.061-0.045-0.072l-2.953-6.984c-0.107-0.239-0.11-0.479-0.008-0.719
			c0.102-0.24,0.27-0.412,0.504-0.514c0.233-0.102,0.471-0.102,0.711,0s0.408,0.279,0.504,0.531l2.124,4.842l1.26-3.006
			c0.168-0.385,0.465-0.576,0.892-0.576c0.426,0,0.717,0.191,0.873,0.576l1.277,3.006l2.124-4.842
			c0.084-0.252,0.249-0.43,0.495-0.531s0.488-0.102,0.729,0s0.411,0.273,0.514,0.514c0.102,0.239,0.099,0.479-0.01,0.719
			l-2.97,6.984l-0.071,0.145l-0.019,0.018c-0.048,0.084-0.126,0.156-0.233,0.216c0,0.013-0.004,0.019-0.01,0.019
			s-0.029,0.015-0.072,0.045c-0.041,0.029-0.072,0.048-0.09,0.054c-0.018,0.007-0.033,0.013-0.045,0.019s-0.054,0.021-0.126,0.045
			h-0.036c-0.035,0.012-0.093,0.018-0.171,0.018s-0.135-0.006-0.171-0.018h-0.035c-0.049-0.024-0.091-0.037-0.127-0.037
			l-0.018-0.018h-0.018c-0.049-0.023-0.103-0.06-0.162-0.107v-0.019c-0.013-0.012-0.049-0.042-0.108-0.09
			c-0.048,0-0.091-0.042-0.126-0.126c-0.012,0-0.018-0.006-0.018-0.018l-1.387-3.258l-1.277,3.113
			c-0.013,0.024-0.043,0.072-0.09,0.145V444.586z"/>
		<path d="M490.668,440.266c0,0.265-0.086,0.478-0.26,0.639c-0.175,0.162-0.406,0.244-0.693,0.244h-5.725
			c0.108,0.516,0.313,0.912,0.612,1.188c0.384,0.444,0.944,0.711,1.683,0.801s1.377-0.057,1.918-0.441
			c0.18-0.191,0.42-0.287,0.719-0.287c0.301,0,0.511,0.078,0.631,0.234c0.336,0.371,0.336,0.762,0,1.17
			c-0.864,0.791-1.924,1.185-3.178,1.179c-1.254-0.007-2.304-0.447-3.149-1.323c-0.847-0.876-1.275-1.932-1.287-3.168
			c0.012-1.236,0.44-2.295,1.287-3.177c0.846-0.882,1.868-1.323,3.069-1.323c1.199,0,2.211,0.393,3.033,1.18
			c0.821,0.785,1.269,1.784,1.34,2.996V440.266z M486.33,437.71c-0.695,0.036-1.254,0.252-1.674,0.647
			c-0.42,0.396-0.672,0.816-0.756,1.261h5.094c-0.107-0.42-0.398-0.828-0.873-1.224C487.647,437.998,487.051,437.77,486.33,437.71z"
			/>
		<path d="M493.53,444.027v-10.655c0-0.264,0.097-0.492,0.288-0.685c0.191-0.191,0.423-0.287,0.693-0.287
			c0.27,0,0.5,0.096,0.693,0.287c0.191,0.192,0.287,0.421,0.287,0.685v3.384c0.721-0.504,1.523-0.756,2.412-0.756
			c1.212,0,2.244,0.444,3.096,1.332c0.853,0.889,1.278,1.947,1.278,3.177c0,1.23-0.426,2.286-1.278,3.168
			c-0.852,0.882-1.884,1.323-3.096,1.323c-0.876,0-1.691-0.258-2.447-0.773c-0.049,0.215-0.16,0.398-0.334,0.549
			S494.736,445,494.484,445s-0.475-0.096-0.666-0.288S493.53,444.292,493.53,444.027z M499.614,438.718
			c-0.468-0.504-1.038-0.756-1.71-0.756s-1.242,0.252-1.71,0.756c-0.468,0.505-0.702,1.102-0.702,1.791
			c0,0.69,0.237,1.284,0.711,1.782c0.475,0.498,1.041,0.747,1.701,0.747s1.227-0.249,1.701-0.747s0.711-1.092,0.711-1.782
			C500.316,439.819,500.082,439.223,499.614,438.718z"/>
		<path d="M513.51,440.266c0,0.265-0.086,0.478-0.26,0.639c-0.175,0.162-0.406,0.244-0.693,0.244h-5.725
			c0.108,0.516,0.313,0.912,0.612,1.188c0.384,0.444,0.944,0.711,1.683,0.801s1.377-0.057,1.918-0.441
			c0.18-0.191,0.42-0.287,0.719-0.287c0.301,0,0.511,0.078,0.631,0.234c0.336,0.371,0.336,0.762,0,1.17
			c-0.864,0.791-1.924,1.185-3.178,1.179c-1.254-0.007-2.304-0.447-3.149-1.323c-0.847-0.876-1.275-1.932-1.287-3.168
			c0.012-1.236,0.44-2.295,1.287-3.177c0.846-0.882,1.868-1.323,3.069-1.323c1.199,0,2.211,0.393,3.033,1.18
			c0.821,0.785,1.269,1.784,1.34,2.996V440.266z M509.172,437.71c-0.695,0.036-1.254,0.252-1.674,0.647
			c-0.42,0.396-0.672,0.816-0.756,1.261h5.094c-0.107-0.42-0.398-0.828-0.873-1.224C510.489,437.998,509.893,437.77,509.172,437.71z
			"/>
	</g>
	<polyline fill="none" stroke="#000000" stroke-width="2" points="341.88,446.935 350.911,447.108 350.911,428.525 342.054,428.699 
			"/>
	<polyline fill="none" stroke="#000000" stroke-width="2" points="341.891,425.288 350.922,425.522 350.922,406.514 
		342.064,406.748 	"/>
	<polyline fill="none" stroke="#000000" stroke-width="2" points="341.88,402.935 350.911,403.108 350.911,351.525 342.054,351.699 
			"/>
	<polyline fill="none" stroke="#000000" stroke-width="2" points="341.88,347.935 350.911,348.108 350.911,329.525 342.054,329.699 
			"/>
	<polyline fill="none" stroke="#000000" stroke-width="2" points="341.88,325.935 350.911,326.108 350.911,238.525 342.054,238.699 
			"/>
	<polyline fill="none" stroke="#000000" stroke-width="2" points="341.88,234.935 350.911,235.108 350.911,147.525 342.054,147.699 
			"/>
	<line fill="none" stroke="#000000" stroke-width="2" x1="360.58" y1="188.543" x2="350.713" y2="188.543"/>
	<line fill="none" stroke="#000000" stroke-width="2" x1="359.855" y1="284.167" x2="351.162" y2="284.167"/>
	<line fill="none" stroke="#000000" stroke-width="2" x1="360.58" y1="338.861" x2="351.524" y2="338.861"/>
	<line fill="none" stroke="#000000" stroke-width="2" x1="360.218" y1="379.067" x2="350.713" y2="379.067"/>
	<line fill="none" stroke="#000000" stroke-width="2" x1="360.493" y1="414.927" x2="351.524" y2="414.927"/>
	<line fill="none" stroke="#000000" stroke-width="2" x1="360.58" y1="438.195" x2="350.8" y2="438.195"/>
</g>
<g id="_x38_50">
	<linearGradient id="_x38_50-ray_1_" gradientUnits="userSpaceOnUse" x1="197.8701" y1="333.9141" x2="225.6504" y2="211.678">
		<stop  offset="0" style="stop-color:#990014;stop-opacity:0.85"/>
		<stop  offset="1" style="stop-color:#9E001C;stop-opacity:0.67"/>
	</linearGradient>
	<path id="_x38_50-ray" fill="url(#_x38_50-ray_1_)" d="M186.007,61L115,421.105c22.353,25.267,115.759,27.086,136.941,0L186.007,61
		z"/>
	<g id="_x38_50-text">
		<path d="M162.087,44.134c0.588,0.396,1.056,0.909,1.404,1.539c0.348,0.63,0.522,1.312,0.522,2.043c0,1.176-0.42,2.185-1.26,3.024
			S160.902,52,159.72,52c-1.182,0-2.196-0.42-3.042-1.26c-0.846-0.84-1.269-1.848-1.269-3.024c0-0.731,0.171-1.413,0.513-2.043
			c0.342-0.63,0.813-1.143,1.413-1.539c-0.396-0.504-0.594-1.131-0.594-1.881c0-0.75,0.291-1.413,0.873-1.989
			c0.582-0.576,1.281-0.864,2.097-0.864c0.816,0,1.515,0.288,2.097,0.864c0.582,0.576,0.873,1.239,0.873,1.989
			C162.682,43.003,162.483,43.63,162.087,44.134z M158.073,49.354c0.456,0.456,1.005,0.684,1.647,0.684s1.191-0.228,1.647-0.684
			c0.456-0.456,0.684-1.002,0.684-1.638c0-0.636-0.228-1.185-0.684-1.647c-0.457-0.461-1.005-0.693-1.647-0.693
			s-1.191,0.228-1.647,0.684s-0.69,1.008-0.702,1.656C157.383,48.352,157.617,48.898,158.073,49.354z M160.719,42.361
			c0-0.27-0.096-0.504-0.288-0.702c-0.192-0.198-0.429-0.297-0.711-0.297c-0.282,0-0.522,0.096-0.72,0.288
			c-0.198,0.192-0.297,0.426-0.297,0.702c0,0.276,0.099,0.516,0.297,0.72c0.198,0.205,0.435,0.306,0.711,0.306
			c0.276,0,0.513-0.102,0.711-0.306C160.621,42.868,160.719,42.631,160.719,42.361z"/>
		<path d="M167.001,45.43l-0.018-0.126c-0.048-0.096-0.054-0.21-0.018-0.342l0.54-4.662c0.06-0.312,0.21-0.552,0.45-0.72
			c0.24-0.12,0.438-0.18,0.594-0.18h5.31c0.288,0,0.531,0.099,0.729,0.297c0.198,0.198,0.297,0.438,0.297,0.72
			c0,0.282-0.099,0.522-0.297,0.72c-0.198,0.198-0.441,0.297-0.729,0.297h-4.428l-0.216,1.782c0.396-0.108,0.798-0.162,1.206-0.162
			c1.236,0,2.289,0.435,3.159,1.305c0.87,0.87,1.305,1.923,1.305,3.159s-0.435,2.292-1.305,3.168S171.657,52,170.421,52h-0.036
			c-1.248,0-2.292-0.438-3.132-1.314c-0.204-0.192-0.306-0.429-0.306-0.711c0-0.282,0.099-0.525,0.297-0.729
			c0.198-0.204,0.438-0.306,0.72-0.306c0.282,0,0.525,0.102,0.729,0.306c0.468,0.48,1.041,0.72,1.719,0.72
			c0.678,0,1.254-0.24,1.728-0.72s0.711-1.056,0.711-1.728c0-0.672-0.234-1.242-0.702-1.71c-0.468-0.468-1.047-0.702-1.737-0.702
			s-1.263,0.234-1.719,0.702c-0.204,0.192-0.444,0.288-0.72,0.288c-0.336,0-0.606-0.132-0.81-0.396
			c-0.048-0.06-0.084-0.102-0.108-0.126C167.055,45.514,167.037,45.466,167.001,45.43z"/>
		<path d="M177.819,45.7c0.024-1.704,0.432-3.138,1.224-4.302c0.876-1.332,1.992-1.998,3.348-1.998c0.672,0,1.296,0.183,1.872,0.549
			c0.576,0.366,1.062,0.849,1.458,1.449c0.804,1.2,1.206,2.634,1.206,4.302s-0.402,3.102-1.206,4.302
			c-0.396,0.6-0.885,1.083-1.467,1.449S183.051,52,182.392,52c-1.344,0-2.46-0.666-3.348-1.998
			C178.251,48.838,177.843,47.404,177.819,45.7z M184.065,48.886c0.576-0.864,0.864-1.923,0.864-3.177s-0.288-2.325-0.864-3.213
			c-0.516-0.756-1.074-1.122-1.674-1.098c-0.601-0.024-1.17,0.342-1.71,1.098c-0.576,0.888-0.864,1.959-0.864,3.213
			s0.288,2.313,0.864,3.177c0.516,0.744,1.083,1.116,1.701,1.116S183.562,49.63,184.065,48.886z"/>
		<path d="M193.047,51.046c0,0.264-0.102,0.489-0.306,0.675S192.306,52,192.048,52c-0.258,0-0.48-0.093-0.666-0.279
			c-0.187-0.186-0.279-0.411-0.279-0.675v-7.092c0-0.264,0.093-0.489,0.279-0.675c0.186-0.186,0.411-0.279,0.675-0.279
			c0.408,0,0.702,0.186,0.882,0.558c0.588-0.372,1.224-0.558,1.908-0.558c1.044,0,1.932,0.369,2.664,1.107
			c0.732,0.738,1.098,1.617,1.098,2.637v4.302c0,0.264-0.09,0.489-0.27,0.675c-0.18,0.186-0.399,0.279-0.657,0.279
			c-0.258,0-0.483-0.093-0.675-0.279c-0.192-0.186-0.288-0.411-0.288-0.675v-4.302c0-0.504-0.183-0.933-0.549-1.287
			c-0.366-0.354-0.804-0.531-1.314-0.531c-0.51,0-0.939,0.177-1.287,0.531c-0.348,0.354-0.522,0.783-0.522,1.287V51.046z"/>
		<path d="M203.091,52l-0.18-0.018c-0.229-0.06-0.414-0.174-0.558-0.342s-0.216-0.366-0.216-0.594v-7.074
			c0-0.276,0.093-0.507,0.279-0.693c0.186-0.186,0.411-0.279,0.675-0.279c0.42,0,0.708,0.18,0.864,0.54
			c0.612-0.36,1.253-0.54,1.926-0.54c1.152,0,2.094,0.414,2.826,1.242c0.708-0.828,1.614-1.242,2.718-1.242s2.022,0.369,2.754,1.107
			c0.732,0.738,1.098,1.629,1.098,2.673v4.266c0,0.264-0.093,0.489-0.279,0.675c-0.187,0.186-0.411,0.279-0.675,0.279
			s-0.492-0.093-0.684-0.279s-0.288-0.411-0.288-0.675V46.78c0-0.516-0.18-0.954-0.54-1.314c-0.36-0.36-0.79-0.54-1.287-0.54
			c-0.498,0-0.927,0.174-1.287,0.522s-0.552,0.774-0.576,1.278v4.32c0,0.264-0.093,0.489-0.279,0.675S208.974,52,208.716,52
			c-0.258,0-0.486-0.096-0.684-0.288c-0.198-0.192-0.297-0.414-0.297-0.666v-4.32c-0.012-0.492-0.198-0.915-0.558-1.269
			c-0.36-0.354-0.789-0.531-1.287-0.531s-0.927,0.18-1.287,0.54c-0.36,0.36-0.54,0.798-0.54,1.314v4.266l-0.018,0.126v0.054
			l-0.054,0.108v0.09C203.799,51.808,203.499,52,203.091,52z"/>
	</g>
</g>
<g id="_x38_30">
	<linearGradient id="_x38_30-ray_1_" gradientUnits="userSpaceOnUse" x1="195.9946" y1="243.5298" x2="214.5318" y2="161.9643">
		<stop  offset="0" style="stop-color:#B00014;stop-opacity:0.85"/>
		<stop  offset="1" style="stop-color:#A1001C;stop-opacity:0.67"/>
	</linearGradient>
	<path id="_x38_30-ray" fill="url(#_x38_30-ray_1_)" d="M186.229,61L136,297.661c19.904,22.499,80.079,24.119,98.941,0L186.229,61z"
		/>
	<g id="_x38_30-text">
		<path d="M162.042,44.134c0.588,0.396,1.056,0.909,1.404,1.539c0.348,0.63,0.522,1.312,0.522,2.043c0,1.176-0.42,2.185-1.26,3.024
			S160.857,52,159.675,52c-1.182,0-2.196-0.42-3.042-1.26c-0.846-0.84-1.269-1.848-1.269-3.024c0-0.731,0.171-1.413,0.513-2.043
			c0.342-0.63,0.813-1.143,1.413-1.539c-0.396-0.504-0.594-1.131-0.594-1.881c0-0.75,0.291-1.413,0.873-1.989
			c0.582-0.576,1.281-0.864,2.097-0.864c0.816,0,1.515,0.288,2.097,0.864c0.582,0.576,0.873,1.239,0.873,1.989
			C162.637,43.003,162.438,43.63,162.042,44.134z M158.028,49.354c0.456,0.456,1.005,0.684,1.647,0.684s1.191-0.228,1.647-0.684
			c0.456-0.456,0.684-1.002,0.684-1.638c0-0.636-0.228-1.185-0.684-1.647c-0.457-0.461-1.005-0.693-1.647-0.693
			s-1.191,0.228-1.647,0.684s-0.69,1.008-0.702,1.656C157.338,48.352,157.572,48.898,158.028,49.354z M160.674,42.361
			c0-0.27-0.096-0.504-0.288-0.702c-0.192-0.198-0.429-0.297-0.711-0.297c-0.282,0-0.522,0.096-0.72,0.288
			c-0.198,0.192-0.297,0.426-0.297,0.702c0,0.276,0.099,0.516,0.297,0.72c0.198,0.205,0.435,0.306,0.711,0.306
			c0.276,0,0.513-0.102,0.711-0.306C160.576,42.868,160.674,42.631,160.674,42.361z"/>
		<path d="M172.446,43.468c0.504,0.229,0.924,0.522,1.26,0.882c0.875,0.864,1.314,1.914,1.314,3.15c0,1.236-0.438,2.292-1.314,3.168
			c-0.876,0.876-1.929,1.314-3.159,1.314s-2.283-0.438-3.159-1.314c-0.204-0.192-0.306-0.432-0.306-0.72
			c0-0.288,0.102-0.528,0.306-0.72s0.444-0.288,0.72-0.288c0.276,0,0.516,0.096,0.72,0.288c0.468,0.468,1.038,0.702,1.71,0.702
			c0.672,0,1.248-0.237,1.728-0.711s0.72-1.047,0.72-1.719c0-0.672-0.231-1.239-0.693-1.701c-0.462-0.461-1.042-0.705-1.737-0.729
			c-0.3,0.024-0.546-0.083-0.738-0.324c-0.012,0-0.018-0.006-0.018-0.018c-0.204-0.192-0.309-0.429-0.315-0.711
			c-0.006-0.282,0.087-0.525,0.279-0.729l1.836-1.872h-2.916c-0.276,0-0.513-0.099-0.711-0.297c-0.198-0.198-0.297-0.438-0.297-0.72
			c0-0.282,0.099-0.522,0.297-0.72c0.198-0.198,0.435-0.297,0.711-0.297h5.31c0.288,0,0.531,0.099,0.729,0.297
			c0.198,0.198,0.297,0.438,0.297,0.72c0,0.282-0.102,0.525-0.306,0.729L172.446,43.468z"/>
		<path d="M177.864,45.7c0.024-1.704,0.432-3.138,1.224-4.302c0.876-1.332,1.992-1.998,3.348-1.998c0.672,0,1.296,0.183,1.872,0.549
			c0.576,0.366,1.062,0.849,1.458,1.449c0.804,1.2,1.206,2.634,1.206,4.302s-0.402,3.102-1.206,4.302
			c-0.396,0.6-0.885,1.083-1.467,1.449S183.096,52,182.436,52c-1.344,0-2.46-0.666-3.348-1.998
			C178.296,48.838,177.888,47.404,177.864,45.7z M184.11,48.886c0.576-0.864,0.864-1.923,0.864-3.177s-0.288-2.325-0.864-3.213
			c-0.516-0.756-1.074-1.122-1.674-1.098c-0.601-0.024-1.17,0.342-1.71,1.098c-0.576,0.888-0.864,1.959-0.864,3.213
			s0.288,2.313,0.864,3.177c0.516,0.744,1.083,1.116,1.701,1.116S183.606,49.63,184.11,48.886z"/>
		<path d="M193.092,51.046c0,0.264-0.102,0.489-0.306,0.675S192.351,52,192.093,52c-0.258,0-0.48-0.093-0.666-0.279
			c-0.187-0.186-0.279-0.411-0.279-0.675v-7.092c0-0.264,0.093-0.489,0.279-0.675c0.186-0.186,0.411-0.279,0.675-0.279
			c0.408,0,0.702,0.186,0.882,0.558c0.588-0.372,1.224-0.558,1.908-0.558c1.044,0,1.932,0.369,2.664,1.107
			c0.732,0.738,1.098,1.617,1.098,2.637v4.302c0,0.264-0.09,0.489-0.27,0.675c-0.18,0.186-0.399,0.279-0.657,0.279
			c-0.258,0-0.483-0.093-0.675-0.279c-0.192-0.186-0.288-0.411-0.288-0.675v-4.302c0-0.504-0.183-0.933-0.549-1.287
			c-0.366-0.354-0.804-0.531-1.314-0.531c-0.51,0-0.939,0.177-1.287,0.531c-0.348,0.354-0.522,0.783-0.522,1.287V51.046z"/>
		<path d="M203.136,52l-0.18-0.018c-0.229-0.06-0.414-0.174-0.558-0.342s-0.216-0.366-0.216-0.594v-7.074
			c0-0.276,0.093-0.507,0.279-0.693c0.186-0.186,0.411-0.279,0.675-0.279c0.42,0,0.708,0.18,0.864,0.54
			c0.612-0.36,1.253-0.54,1.926-0.54c1.152,0,2.094,0.414,2.826,1.242C209.46,43.414,210.366,43,211.47,43s2.022,0.369,2.754,1.107
			c0.732,0.738,1.098,1.629,1.098,2.673v4.266c0,0.264-0.093,0.489-0.279,0.675c-0.187,0.186-0.411,0.279-0.675,0.279
			s-0.492-0.093-0.684-0.279s-0.288-0.411-0.288-0.675V46.78c0-0.516-0.18-0.954-0.54-1.314c-0.36-0.36-0.79-0.54-1.287-0.54
			c-0.498,0-0.927,0.174-1.287,0.522s-0.552,0.774-0.576,1.278v4.32c0,0.264-0.093,0.489-0.279,0.675S209.019,52,208.761,52
			c-0.258,0-0.486-0.096-0.684-0.288c-0.198-0.192-0.297-0.414-0.297-0.666v-4.32c-0.012-0.492-0.198-0.915-0.558-1.269
			c-0.36-0.354-0.789-0.531-1.287-0.531s-0.927,0.18-1.287,0.54c-0.36,0.36-0.54,0.798-0.54,1.314v4.266l-0.018,0.126v0.054
			l-0.054,0.108v0.09C203.844,51.808,203.543,52,203.136,52z"/>
	</g>
</g>
<g id="_x38_10">
	<linearGradient id="_x38_10-ray_1_" gradientUnits="userSpaceOnUse" x1="192.5381" y1="327.543" x2="219.7932" y2="207.6179">
		<stop  offset="0" style="stop-color:#B00014;stop-opacity:0.85"/>
		<stop  offset="1" style="stop-color:#A1001C;stop-opacity:0.67"/>
	</linearGradient>
	<path id="_x38_10-ray" fill="url(#_x38_10-ray_1_)" d="M186.229,61L131,417.661c19.904,22.499,89.079,24.119,107.941,0L186.229,61z
		"/>
	<g id="_x38_10-text">
		<path d="M164.518,44.134c0.588,0.396,1.056,0.909,1.404,1.539c0.348,0.63,0.522,1.312,0.522,2.043c0,1.176-0.42,2.185-1.26,3.024
			S163.333,52,162.15,52c-1.182,0-2.196-0.42-3.042-1.26c-0.846-0.84-1.269-1.848-1.269-3.024c0-0.731,0.171-1.413,0.513-2.043
			c0.342-0.63,0.813-1.143,1.413-1.539c-0.396-0.504-0.594-1.131-0.594-1.881c0-0.75,0.291-1.413,0.873-1.989
			c0.582-0.576,1.281-0.864,2.097-0.864c0.816,0,1.515,0.288,2.097,0.864c0.582,0.576,0.873,1.239,0.873,1.989
			C165.112,43.003,164.914,43.63,164.518,44.134z M160.503,49.354c0.456,0.456,1.005,0.684,1.647,0.684s1.191-0.228,1.647-0.684
			c0.456-0.456,0.684-1.002,0.684-1.638c0-0.636-0.228-1.185-0.684-1.647c-0.457-0.461-1.005-0.693-1.647-0.693
			s-1.191,0.228-1.647,0.684s-0.69,1.008-0.702,1.656C159.813,48.352,160.047,48.898,160.503,49.354z M163.149,42.361
			c0-0.27-0.096-0.504-0.288-0.702c-0.192-0.198-0.429-0.297-0.711-0.297c-0.282,0-0.522,0.096-0.72,0.288
			c-0.198,0.192-0.297,0.426-0.297,0.702c0,0.276,0.099,0.516,0.297,0.72c0.198,0.205,0.435,0.306,0.711,0.306
			c0.276,0,0.513-0.102,0.711-0.306C163.051,42.868,163.149,42.631,163.149,42.361z"/>
		<path d="M172.419,39.454l0.18,0.072l0.162,0.126c0.168,0.156,0.252,0.267,0.252,0.333c0,0.066,0.006,0.108,0.018,0.126
			c0.012,0.018,0.021,0.054,0.027,0.108c0.006,0.054,0.021,0.093,0.045,0.117V51.01c0,0.276-0.099,0.51-0.297,0.702
			c-0.198,0.192-0.435,0.288-0.711,0.288c-0.276,0-0.51-0.096-0.702-0.288c-0.192-0.192-0.288-0.426-0.288-0.702v-8.856l-0.72,0.414
			c-0.144,0.096-0.312,0.144-0.504,0.144c-0.372,0-0.654-0.168-0.846-0.504c-0.156-0.228-0.201-0.477-0.135-0.747
			s0.219-0.471,0.459-0.603l2.214-1.314l0.072-0.036l0.09-0.054l0.108-0.018c0.024-0.024,0.09-0.036,0.198-0.036h0.198
			c0.012,0.012,0.033,0.018,0.063,0.018S172.372,39.43,172.419,39.454z"/>
		<path d="M175.389,45.7c0.024-1.704,0.432-3.138,1.224-4.302c0.876-1.332,1.992-1.998,3.348-1.998c0.672,0,1.296,0.183,1.872,0.549
			c0.576,0.366,1.062,0.849,1.458,1.449c0.804,1.2,1.206,2.634,1.206,4.302s-0.402,3.102-1.206,4.302
			c-0.396,0.6-0.885,1.083-1.467,1.449S180.621,52,179.961,52c-1.344,0-2.46-0.666-3.348-1.998
			C175.821,48.838,175.413,47.404,175.389,45.7z M181.635,48.886c0.576-0.864,0.864-1.923,0.864-3.177s-0.288-2.325-0.864-3.213
			c-0.516-0.756-1.074-1.122-1.674-1.098c-0.601-0.024-1.17,0.342-1.71,1.098c-0.576,0.888-0.864,1.959-0.864,3.213
			s0.288,2.313,0.864,3.177c0.516,0.744,1.083,1.116,1.701,1.116S181.131,49.63,181.635,48.886z"/>
		<path d="M190.617,51.046c0,0.264-0.102,0.489-0.306,0.675S189.876,52,189.618,52c-0.258,0-0.48-0.093-0.666-0.279
			c-0.187-0.186-0.279-0.411-0.279-0.675v-7.092c0-0.264,0.093-0.489,0.279-0.675c0.186-0.186,0.411-0.279,0.675-0.279
			c0.408,0,0.702,0.186,0.882,0.558c0.588-0.372,1.224-0.558,1.908-0.558c1.044,0,1.932,0.369,2.664,1.107
			c0.732,0.738,1.098,1.617,1.098,2.637v4.302c0,0.264-0.09,0.489-0.27,0.675c-0.18,0.186-0.399,0.279-0.657,0.279
			c-0.258,0-0.483-0.093-0.675-0.279c-0.192-0.186-0.288-0.411-0.288-0.675v-4.302c0-0.504-0.183-0.933-0.549-1.287
			c-0.366-0.354-0.804-0.531-1.314-0.531c-0.51,0-0.939,0.177-1.287,0.531c-0.348,0.354-0.522,0.783-0.522,1.287V51.046z"/>
		<path d="M200.661,52l-0.18-0.018c-0.229-0.06-0.414-0.174-0.558-0.342s-0.216-0.366-0.216-0.594v-7.074
			c0-0.276,0.093-0.507,0.279-0.693c0.186-0.186,0.411-0.279,0.675-0.279c0.42,0,0.708,0.18,0.864,0.54
			c0.612-0.36,1.253-0.54,1.926-0.54c1.152,0,2.094,0.414,2.826,1.242c0.708-0.828,1.614-1.242,2.718-1.242s2.022,0.369,2.754,1.107
			c0.732,0.738,1.098,1.629,1.098,2.673v4.266c0,0.264-0.093,0.489-0.279,0.675c-0.187,0.186-0.411,0.279-0.675,0.279
			s-0.492-0.093-0.684-0.279s-0.288-0.411-0.288-0.675V46.78c0-0.516-0.18-0.954-0.54-1.314c-0.36-0.36-0.79-0.54-1.287-0.54
			c-0.498,0-0.927,0.174-1.287,0.522s-0.552,0.774-0.576,1.278v4.32c0,0.264-0.093,0.489-0.279,0.675S206.544,52,206.286,52
			c-0.258,0-0.486-0.096-0.684-0.288c-0.198-0.192-0.297-0.414-0.297-0.666v-4.32c-0.012-0.492-0.198-0.915-0.558-1.269
			c-0.36-0.354-0.789-0.531-1.287-0.531s-0.927,0.18-1.287,0.54c-0.36,0.36-0.54,0.798-0.54,1.314v4.266l-0.018,0.126v0.054
			l-0.054,0.108v0.09C201.369,51.808,201.069,52,200.661,52z"/>
	</g>
</g>
<g id="_x36_60">
	<linearGradient id="_x36_60-ray_1_" gradientUnits="userSpaceOnUse" x1="195.9946" y1="243.5298" x2="214.5318" y2="161.9643">
		<stop  offset="0" style="stop-color:#D40014;stop-opacity:0.65"/>
		<stop  offset="1" style="stop-color:#B3121C;stop-opacity:0.67"/>
	</linearGradient>
	<path id="_x36_60-ray" fill="url(#_x36_60-ray_1_)" d="M186.229,61L136,297.661c19.904,22.499,80.079,24.119,98.941,0L186.229,61z"
		/>
	<g id="_x36_60-text">
		<path d="M155.473,48.094l-0.054-1.062c0-1.5,0.252-2.844,0.756-4.032c0.504-1.188,1.236-2.1,2.196-2.736
			c0.792-0.528,1.692-0.81,2.7-0.846c0.276-0.012,0.513,0.075,0.711,0.261c0.198,0.186,0.306,0.414,0.324,0.684
			s-0.069,0.507-0.261,0.711c-0.192,0.204-0.426,0.318-0.702,0.342c-0.612,0.012-1.191,0.195-1.737,0.549
			c-0.546,0.354-0.987,0.916-1.323,1.683c0.54-0.24,1.116-0.36,1.728-0.36c1.212,0,2.244,0.426,3.096,1.278
			c0.852,0.852,1.278,1.878,1.278,3.078c0,1.2-0.426,2.226-1.278,3.078c-0.853,0.852-1.863,1.278-3.033,1.278
			s-2.169-0.375-2.997-1.125C156.049,50.125,155.581,49.198,155.473,48.094z M158.137,49.318c0.456,0.457,1.014,0.684,1.674,0.684
			c0.66,0,1.221-0.228,1.683-0.684c0.462-0.456,0.693-1.011,0.693-1.665c0-0.654-0.231-1.215-0.693-1.683
			c-0.462-0.468-1.02-0.702-1.674-0.702c-0.654,0-1.212,0.234-1.674,0.702c-0.462,0.468-0.693,1.029-0.693,1.683
			C157.453,48.307,157.68,48.862,158.137,49.318z"/>
		<path d="M172.555,43.468c0.504,0.229,0.924,0.522,1.26,0.882c0.875,0.864,1.314,1.914,1.314,3.15c0,1.236-0.438,2.292-1.314,3.168
			c-0.876,0.876-1.929,1.314-3.159,1.314s-2.283-0.438-3.159-1.314c-0.204-0.192-0.306-0.432-0.306-0.72
			c0-0.288,0.102-0.528,0.306-0.72s0.444-0.288,0.72-0.288c0.276,0,0.516,0.096,0.72,0.288c0.468,0.468,1.038,0.702,1.71,0.702
			c0.672,0,1.248-0.237,1.728-0.711s0.72-1.047,0.72-1.719c0-0.672-0.231-1.239-0.693-1.701c-0.462-0.461-1.042-0.705-1.737-0.729
			c-0.3,0.024-0.546-0.083-0.738-0.324c-0.012,0-0.018-0.006-0.018-0.018c-0.204-0.192-0.309-0.429-0.315-0.711
			c-0.006-0.282,0.087-0.525,0.279-0.729l1.836-1.872h-2.916c-0.276,0-0.513-0.099-0.711-0.297c-0.198-0.198-0.297-0.438-0.297-0.72
			c0-0.282,0.099-0.522,0.297-0.72c0.198-0.198,0.435-0.297,0.711-0.297h5.31c0.288,0,0.531,0.099,0.729,0.297
			c0.198,0.198,0.297,0.438,0.297,0.72c0,0.282-0.102,0.525-0.306,0.729L172.555,43.468z"/>
		<path d="M177.972,45.7c0.024-1.704,0.432-3.138,1.224-4.302c0.876-1.332,1.992-1.998,3.348-1.998c0.672,0,1.296,0.183,1.872,0.549
			c0.576,0.366,1.062,0.849,1.458,1.449c0.804,1.2,1.206,2.634,1.206,4.302s-0.402,3.102-1.206,4.302
			c-0.396,0.6-0.885,1.083-1.467,1.449S183.204,52,182.544,52c-1.344,0-2.46-0.666-3.348-1.998
			C178.404,48.838,177.996,47.404,177.972,45.7z M184.218,48.886c0.576-0.864,0.864-1.923,0.864-3.177s-0.288-2.325-0.864-3.213
			c-0.516-0.756-1.074-1.122-1.674-1.098c-0.601-0.024-1.17,0.342-1.71,1.098c-0.576,0.888-0.864,1.959-0.864,3.213
			s0.288,2.313,0.864,3.177c0.516,0.744,1.083,1.116,1.701,1.116S183.714,49.63,184.218,48.886z"/>
		<path d="M193.2,51.046c0,0.264-0.102,0.489-0.306,0.675S192.459,52,192.201,52c-0.258,0-0.48-0.093-0.666-0.279
			c-0.187-0.186-0.279-0.411-0.279-0.675v-7.092c0-0.264,0.093-0.489,0.279-0.675c0.186-0.186,0.411-0.279,0.675-0.279
			c0.408,0,0.702,0.186,0.882,0.558C193.68,43.186,194.316,43,195,43c1.044,0,1.932,0.369,2.664,1.107
			c0.732,0.738,1.098,1.617,1.098,2.637v4.302c0,0.264-0.09,0.489-0.27,0.675c-0.18,0.186-0.399,0.279-0.657,0.279
			c-0.258,0-0.483-0.093-0.675-0.279c-0.192-0.186-0.288-0.411-0.288-0.675v-4.302c0-0.504-0.183-0.933-0.549-1.287
			c-0.366-0.354-0.804-0.531-1.314-0.531c-0.51,0-0.939,0.177-1.287,0.531c-0.348,0.354-0.522,0.783-0.522,1.287V51.046z"/>
		<path d="M203.244,52l-0.18-0.018c-0.229-0.06-0.414-0.174-0.558-0.342s-0.216-0.366-0.216-0.594v-7.074
			c0-0.276,0.093-0.507,0.279-0.693c0.186-0.186,0.411-0.279,0.675-0.279c0.42,0,0.708,0.18,0.864,0.54
			c0.612-0.36,1.253-0.54,1.926-0.54c1.152,0,2.094,0.414,2.826,1.242c0.708-0.828,1.614-1.242,2.718-1.242s2.022,0.369,2.754,1.107
			c0.732,0.738,1.098,1.629,1.098,2.673v4.266c0,0.264-0.093,0.489-0.279,0.675C214.965,51.907,214.74,52,214.476,52
			s-0.492-0.093-0.684-0.279s-0.288-0.411-0.288-0.675V46.78c0-0.516-0.18-0.954-0.54-1.314c-0.36-0.36-0.79-0.54-1.287-0.54
			c-0.498,0-0.927,0.174-1.287,0.522s-0.552,0.774-0.576,1.278v4.32c0,0.264-0.093,0.489-0.279,0.675S209.127,52,208.869,52
			c-0.258,0-0.486-0.096-0.684-0.288c-0.198-0.192-0.297-0.414-0.297-0.666v-4.32c-0.012-0.492-0.198-0.915-0.558-1.269
			c-0.36-0.354-0.789-0.531-1.287-0.531s-0.927,0.18-1.287,0.54c-0.36,0.36-0.54,0.798-0.54,1.314v4.266l-0.018,0.126v0.054
			l-0.054,0.108v0.09C203.952,51.808,203.652,52,203.244,52z"/>
	</g>
</g>
<g id="_x36_30">
	<linearGradient id="_x36_30-ray_1_" gradientUnits="userSpaceOnUse" x1="190.7778" y1="164.3101" x2="201.2925" y2="118.0444">
		<stop  offset="0" style="stop-color:#D40014;stop-opacity:0.65"/>
		<stop  offset="1" style="stop-color:#B3121C;stop-opacity:0.67"/>
	</linearGradient>
	<path id="_x36_30-ray" fill="url(#_x36_30-ray_1_)" d="M186.229,61L146,187.661c19.904,22.499,60.079,24.119,78.941,0L186.229,61z"
		/>
	<g id="_x36_30-text">
		<path d="M155.185,48.094l-0.054-1.062c0-1.5,0.252-2.844,0.756-4.032c0.504-1.188,1.236-2.1,2.196-2.736
			c0.792-0.528,1.692-0.81,2.7-0.846c0.276-0.012,0.513,0.075,0.711,0.261c0.198,0.186,0.306,0.414,0.324,0.684
			s-0.069,0.507-0.261,0.711c-0.192,0.204-0.426,0.318-0.702,0.342c-0.612,0.012-1.191,0.195-1.737,0.549
			c-0.546,0.354-0.987,0.916-1.323,1.683c0.54-0.24,1.116-0.36,1.728-0.36c1.212,0,2.244,0.426,3.096,1.278
			c0.852,0.852,1.278,1.878,1.278,3.078c0,1.2-0.426,2.226-1.278,3.078c-0.853,0.852-1.863,1.278-3.033,1.278
			s-2.169-0.375-2.997-1.125C155.761,50.125,155.292,49.198,155.185,48.094z M157.849,49.318c0.456,0.457,1.014,0.684,1.674,0.684
			c0.66,0,1.221-0.228,1.683-0.684c0.462-0.456,0.693-1.011,0.693-1.665c0-0.654-0.231-1.215-0.693-1.683
			c-0.462-0.468-1.02-0.702-1.674-0.702c-0.654,0-1.212,0.234-1.674,0.702c-0.462,0.468-0.693,1.029-0.693,1.683
			C157.165,48.307,157.392,48.862,157.849,49.318z"/>
		<path d="M166.741,48.094l-0.054-1.062c0-1.5,0.252-2.844,0.756-4.032c0.504-1.188,1.236-2.1,2.196-2.736
			c0.792-0.528,1.692-0.81,2.7-0.846c0.276-0.012,0.513,0.075,0.711,0.261c0.198,0.186,0.306,0.414,0.324,0.684
			s-0.069,0.507-0.261,0.711c-0.192,0.204-0.426,0.318-0.702,0.342c-0.612,0.012-1.191,0.195-1.737,0.549
			c-0.546,0.354-0.987,0.916-1.323,1.683c0.54-0.24,1.116-0.36,1.728-0.36c1.212,0,2.244,0.426,3.096,1.278
			c0.852,0.852,1.278,1.878,1.278,3.078c0,1.2-0.426,2.226-1.278,3.078c-0.853,0.852-1.863,1.278-3.033,1.278
			s-2.169-0.375-2.997-1.125C167.317,50.125,166.849,49.198,166.741,48.094z M169.405,49.318c0.456,0.457,1.014,0.684,1.674,0.684
			c0.66,0,1.221-0.228,1.683-0.684c0.462-0.456,0.693-1.011,0.693-1.665c0-0.654-0.231-1.215-0.693-1.683
			c-0.462-0.468-1.02-0.702-1.674-0.702c-0.654,0-1.212,0.234-1.674,0.702c-0.462,0.468-0.693,1.029-0.693,1.683
			C168.721,48.307,168.948,48.862,169.405,49.318z"/>
		<path d="M178.26,45.7c0.024-1.704,0.432-3.138,1.224-4.302c0.876-1.332,1.992-1.998,3.348-1.998c0.672,0,1.296,0.183,1.872,0.549
			c0.576,0.366,1.062,0.849,1.458,1.449c0.804,1.2,1.206,2.634,1.206,4.302s-0.402,3.102-1.206,4.302
			c-0.396,0.6-0.885,1.083-1.467,1.449S183.492,52,182.833,52c-1.344,0-2.46-0.666-3.348-1.998
			C178.692,48.838,178.284,47.404,178.26,45.7z M184.506,48.886c0.576-0.864,0.864-1.923,0.864-3.177s-0.288-2.325-0.864-3.213
			c-0.516-0.756-1.074-1.122-1.674-1.098c-0.601-0.024-1.17,0.342-1.71,1.098c-0.576,0.888-0.864,1.959-0.864,3.213
			s0.288,2.313,0.864,3.177c0.516,0.744,1.083,1.116,1.701,1.116S184.002,49.63,184.506,48.886z"/>
		<path d="M193.488,51.046c0,0.264-0.102,0.489-0.306,0.675S192.747,52,192.489,52c-0.258,0-0.48-0.093-0.666-0.279
			c-0.187-0.186-0.279-0.411-0.279-0.675v-7.092c0-0.264,0.093-0.489,0.279-0.675c0.186-0.186,0.411-0.279,0.675-0.279
			c0.408,0,0.702,0.186,0.882,0.558c0.588-0.372,1.224-0.558,1.908-0.558c1.044,0,1.932,0.369,2.664,1.107
			c0.732,0.738,1.098,1.617,1.098,2.637v4.302c0,0.264-0.09,0.489-0.27,0.675C198.6,51.907,198.381,52,198.123,52
			c-0.258,0-0.483-0.093-0.675-0.279c-0.192-0.186-0.288-0.411-0.288-0.675v-4.302c0-0.504-0.183-0.933-0.549-1.287
			c-0.366-0.354-0.804-0.531-1.314-0.531c-0.51,0-0.939,0.177-1.287,0.531c-0.348,0.354-0.522,0.783-0.522,1.287V51.046z"/>
		<path d="M203.532,52l-0.18-0.018c-0.229-0.06-0.414-0.174-0.558-0.342s-0.216-0.366-0.216-0.594v-7.074
			c0-0.276,0.093-0.507,0.279-0.693c0.186-0.186,0.411-0.279,0.675-0.279c0.42,0,0.708,0.18,0.864,0.54
			c0.612-0.36,1.253-0.54,1.926-0.54c1.152,0,2.094,0.414,2.826,1.242c0.708-0.828,1.614-1.242,2.718-1.242s2.022,0.369,2.754,1.107
			c0.732,0.738,1.098,1.629,1.098,2.673v4.266c0,0.264-0.093,0.489-0.279,0.675c-0.187,0.186-0.411,0.279-0.675,0.279
			s-0.492-0.093-0.684-0.279s-0.288-0.411-0.288-0.675V46.78c0-0.516-0.18-0.954-0.54-1.314c-0.36-0.36-0.79-0.54-1.287-0.54
			c-0.498,0-0.927,0.174-1.287,0.522s-0.552,0.774-0.576,1.278v4.32c0,0.264-0.093,0.489-0.279,0.675S209.415,52,209.157,52
			c-0.258,0-0.486-0.096-0.684-0.288c-0.198-0.192-0.297-0.414-0.297-0.666v-4.32c-0.012-0.492-0.198-0.915-0.558-1.269
			c-0.36-0.354-0.789-0.531-1.287-0.531s-0.927,0.18-1.287,0.54c-0.36,0.36-0.54,0.798-0.54,1.314v4.266l-0.018,0.126v0.054
			l-0.054,0.108v0.09C204.24,51.808,203.94,52,203.532,52z"/>
	</g>
</g>
</svg>
