<?xml version="1.0" encoding="utf-8"?>
<!-- Generator: Adobe Illustrator 14.0.0, SVG Export Plug-In . SVG Version: 6.00 Build 43363)  -->
<!DOCTYPE svg PUBLIC "-//W3C//DTD SVG 1.1//EN" "http://www.w3.org/Graphics/SVG/1.1/DTD/svg11.dtd">
<svg version="1.1" id="Ebene_1" xmlns="http://www.w3.org/2000/svg" xmlns:xlink="http://www.w3.org/1999/xlink" x="0px" y="0px"
	 width="186.134px" height="46.171px" viewBox="0 0 186.134 46.171" enable-background="new 0 0 186.134 46.171"
	 xml:space="preserve">
<linearGradient id="SVGID_1_" gradientUnits="userSpaceOnUse" x1="170.4966" y1="23.522" x2="187.8296" y2="28.8212">
	<stop  offset="0" style="stop-color:#ED383D"/>
	<stop  offset="1" style="stop-color:#F5B04F"/>
</linearGradient>
<path fill="url(#SVGID_1_)" d="M184.851,38.561l-9.186-23.88c-0.399-1.037-0.586-1.612-1.124-2.122l-2.479,5.838l7.717,20.165
	H184.851z"/>
<linearGradient id="SVGID_2_" gradientUnits="userSpaceOnUse" x1="63.0298" y1="66.5928" x2="55.6848" y2="-143.7406">
	<stop  offset="0" style="stop-color:#ED383D"/>
	<stop  offset="1" style="stop-color:#F5B04F"/>
</linearGradient>
<path fill="url(#SVGID_2_)" d="M49.865,37.84V14.55c0-4.018,1.071-7.201,3.211-9.55c2.142-2.347,4.995-3.522,8.563-3.522
	c3.569,0,6.414,1.175,8.535,3.522c2.122,2.349,3.184,5.532,3.184,9.55v23.29h-4.902V13.647c0-2.178-0.635-3.951-1.901-5.322
	c-1.267-1.371-2.905-2.057-4.916-2.057c-1.991,0-3.628,0.686-4.915,2.057c-1.286,1.371-1.93,3.145-1.93,5.322V37.84H49.865z"/>
<linearGradient id="SVGID_3_" gradientUnits="userSpaceOnUse" x1="93.8965" y1="96.2383" x2="88.1923" y2="-67.1081">
	<stop  offset="0" style="stop-color:#ED383D"/>
	<stop  offset="1" style="stop-color:#F5B04F"/>
</linearGradient>
<path fill="url(#SVGID_3_)" d="M102.908,10.205v15.072c0,4.02-1.063,7.202-3.196,9.55c-2.134,2.348-4.992,3.521-8.579,3.521
	c-3.567,0-6.411-1.174-8.536-3.521c-2.122-2.348-3.182-5.53-3.182-9.55V10.205h4.93V26.18c0,2.178,0.643,3.951,1.93,5.322
	c1.286,1.37,2.924,2.057,4.916,2.057c2.009,0,3.647-0.687,4.914-2.057c1.267-1.371,1.902-3.145,1.902-5.322V10.205H102.908z"/>
<linearGradient id="SVGID_4_" gradientUnits="userSpaceOnUse" x1="124.6987" y1="132.1172" x2="118.9947" y2="-31.2238">
	<stop  offset="0" style="stop-color:#ED383D"/>
	<stop  offset="1" style="stop-color:#F5B04F"/>
</linearGradient>
<path fill="url(#SVGID_4_)" d="M132.458,10.205v15.072c0,4.02-1.063,7.202-3.195,9.55c-2.134,2.348-4.992,3.521-8.577,3.521
	c-3.568,0-6.413-1.174-8.537-3.521c-2.122-2.348-3.183-5.53-3.183-9.55V10.205h4.93V26.18c0,2.178,0.644,3.951,1.931,5.322
	c1.286,1.37,2.923,2.057,4.918,2.057c2.008,0,3.645-0.687,4.912-2.057c1.268-1.371,1.901-3.145,1.901-5.322V10.205H132.458z"/>
<linearGradient id="SVGID_5_" gradientUnits="userSpaceOnUse" x1="153.2944" y1="147.6816" x2="148.3221" y2="5.2919">
	<stop  offset="0" style="stop-color:#ED383D"/>
	<stop  offset="1" style="stop-color:#F5B04F"/>
</linearGradient>
<path fill="url(#SVGID_5_)" d="M140.598,10.769l7.916,20.878l7.886-20.878h5.099l-9.236,23.88c-0.434,1.119-0.953,1.93-1.563,2.434
	c-0.609,0.507-1.357,0.758-2.238,0.758c-0.884,0-1.623-0.251-2.215-0.758c-0.591-0.504-1.101-1.314-1.533-2.434l-9.185-23.88
	H140.598z"/>
<linearGradient id="SVGID_6_" gradientUnits="userSpaceOnUse" x1="174.5552" y1="334.043" x2="163.8595" y2="27.7609">
	<stop  offset="0" style="stop-color:#ED383D"/>
	<stop  offset="1" style="stop-color:#F5B04F"/>
</linearGradient>
<path fill="url(#SVGID_6_)" d="M173.555,11.498c-0.592-0.505-1.331-0.756-2.214-0.756c-0.881,0-1.629,0.251-2.239,0.756
	c-0.61,0.504-1.13,1.315-1.564,2.434l-13.346,32.099h5.099l11.995-29.097l0,0c-0.006-0.076,2.313-5.398,2.313-5.398
	C173.556,11.496,173.598,11.536,173.555,11.498z"/>
<ellipse transform="matrix(0.7071 -0.7071 0.7071 0.7071 3.4345 18.9338)" fill="#ED4A24" cx="24.574" cy="5.321" rx="3.603" ry="3.846"/>
<ellipse transform="matrix(0.7071 -0.7071 0.7071 0.7071 -5.9892 15.0296)" fill="#FC9430" cx="15.149" cy="14.745" rx="3.604" ry="3.847"/>
<ellipse transform="matrix(0.707 -0.7072 0.7072 0.707 -14.7057 11.4244)" fill="#ED4A24" cx="6.435" cy="23.46" rx="3.604" ry="3.846"/>
<ellipse transform="matrix(0.707 -0.7072 0.7072 0.707 -0.6531 28.8152)" fill="#FC9430" cx="34.449" cy="15.196" rx="3.603" ry="3.847"/>
<ellipse transform="matrix(0.7072 -0.707 0.707 0.7072 -10.0804 24.9032)" fill="#ED4A24" cx="25.025" cy="24.621" rx="3.603" ry="3.845"/>
<ellipse transform="matrix(0.7071 -0.7071 0.7071 0.7071 -18.7953 21.297)" fill="#FC9430" cx="16.31" cy="33.336" rx="3.604" ry="3.846"/>
</svg>
