<?xml version="1.0" encoding="utf-8"?>
<!-- Generator: Adobe Illustrator 14.0.0, SVG Export Plug-In . SVG Version: 6.00 Build 43363)  -->
<!DOCTYPE svg PUBLIC "-//W3C//DTD SVG 1.1//EN" "http://www.w3.org/Graphics/SVG/1.1/DTD/svg11.dtd">
<svg version="1.1" id="Ebene_1" xmlns="http://www.w3.org/2000/svg" xmlns:xlink="http://www.w3.org/1999/xlink" x="0px" y="0px"
	 width="225px" height="56px" viewBox="0 0 225 56" enable-background="new 0 0 225 56" xml:space="preserve">
<linearGradient id="SVGID_1_" gradientUnits="userSpaceOnUse" x1="206.5059" y1="28.2891" x2="227.5866" y2="34.7341">
	<stop  offset="0" style="stop-color:#ED383D"/>
	<stop  offset="1" style="stop-color:#F59E4F"/>
</linearGradient>
<path fill="url(#SVGID_1_)" d="M223.965,46.58l-11.172-29.045c-0.486-1.261-0.713-1.96-1.367-2.581l-3.015,7.101l9.386,24.525
	H223.965z"/>
<linearGradient id="SVGID_2_" gradientUnits="userSpaceOnUse" x1="75.7993" y1="80.6748" x2="66.8659" y2="-175.1452">
	<stop  offset="0" style="stop-color:#ED383D"/>
	<stop  offset="1" style="stop-color:#F59E4F"/>
</linearGradient>
<path fill="url(#SVGID_2_)" d="M59.788,45.703V17.377c0-4.887,1.302-8.758,3.906-11.615c2.605-2.854,6.075-4.284,10.415-4.284
	c4.341,0,7.801,1.429,10.381,4.284c2.581,2.856,3.873,6.728,3.873,11.615v28.326H82.4V16.279c0-2.649-0.772-4.806-2.313-6.474
	c-1.541-1.667-3.534-2.501-5.979-2.501c-2.422,0-4.414,0.834-5.978,2.501c-1.564,1.667-2.348,3.825-2.348,6.474v29.424H59.788z"/>
<linearGradient id="SVGID_3_" gradientUnits="userSpaceOnUse" x1="113.3408" y1="116.7295" x2="106.4031" y2="-81.9406">
	<stop  offset="0" style="stop-color:#ED383D"/>
	<stop  offset="1" style="stop-color:#F59E4F"/>
</linearGradient>
<path fill="url(#SVGID_3_)" d="M124.301,12.092v18.331c0,4.889-1.293,8.76-3.887,11.615c-2.596,2.855-6.072,4.283-10.434,4.283
	c-4.339,0-7.797-1.428-10.382-4.283c-2.581-2.855-3.87-6.727-3.87-11.615V12.092h5.997v19.43c0,2.648,0.782,4.806,2.347,6.474
	c1.564,1.666,3.556,2.501,5.979,2.501c2.443,0,4.436-0.835,5.977-2.501c1.541-1.668,2.313-3.825,2.313-6.474v-19.43H124.301z"/>
<linearGradient id="SVGID_4_" gradientUnits="userSpaceOnUse" x1="150.8047" y1="160.3691" x2="143.8672" y2="-38.2944">
	<stop  offset="0" style="stop-color:#ED383D"/>
	<stop  offset="1" style="stop-color:#F59E4F"/>
</linearGradient>
<path fill="url(#SVGID_4_)" d="M160.241,12.092v18.331c0,4.889-1.294,8.76-3.887,11.615c-2.595,2.855-6.071,4.283-10.432,4.283
	c-4.34,0-7.801-1.428-10.384-4.283c-2.581-2.855-3.871-6.727-3.871-11.615V12.092h5.996v19.43c0,2.648,0.782,4.806,2.349,6.474
	c1.563,1.666,3.555,2.501,5.98,2.501c2.442,0,4.434-0.835,5.975-2.501c1.542-1.668,2.313-3.825,2.313-6.474v-19.43H160.241z"/>
<linearGradient id="SVGID_5_" gradientUnits="userSpaceOnUse" x1="185.584" y1="179.2998" x2="179.5363" y2="6.116">
	<stop  offset="0" style="stop-color:#ED383D"/>
	<stop  offset="1" style="stop-color:#F59E4F"/>
</linearGradient>
<path fill="url(#SVGID_5_)" d="M170.142,12.778l9.628,25.393l9.592-25.393h6.201l-11.234,29.043
	c-0.527,1.361-1.159,2.348-1.901,2.96c-0.741,0.616-1.651,0.922-2.723,0.922c-1.074,0-1.974-0.306-2.693-0.922
	c-0.719-0.612-1.339-1.599-1.865-2.96l-11.171-29.043H170.142z"/>
<linearGradient id="SVGID_6_" gradientUnits="userSpaceOnUse" x1="211.4414" y1="405.9561" x2="198.4329" y2="33.4432">
	<stop  offset="0" style="stop-color:#ED383D"/>
	<stop  offset="1" style="stop-color:#F59E4F"/>
</linearGradient>
<path fill="url(#SVGID_6_)" d="M210.226,13.665c-0.719-0.614-1.618-0.92-2.692-0.92c-1.071,0-1.981,0.306-2.724,0.92
	c-0.742,0.614-1.374,1.6-1.902,2.96l-16.232,39.041h6.202l14.589-35.389l0,0c-0.008-0.092,2.813-6.566,2.813-6.566
	C210.228,13.662,210.278,13.711,210.226,13.665z"/>
<ellipse transform="matrix(0.7071 -0.7071 0.7071 0.7071 4.1513 22.3259)" fill="#ED4A24" cx="29.027" cy="6.152" rx="4.383" ry="4.678"/>
<ellipse transform="matrix(0.7071 -0.7071 0.7071 0.7071 -7.3105 17.5774)" fill="#FC9430" cx="17.564" cy="17.614" rx="4.383" ry="4.68"/>
<ellipse transform="matrix(0.707 -0.7072 0.7072 0.707 -17.9119 13.1914)" fill="#ED4A24" cx="6.965" cy="28.214" rx="4.383" ry="4.678"/>
<ellipse transform="matrix(0.707 -0.7072 0.7072 0.707 -0.821 34.3429)" fill="#FC9430" cx="41.038" cy="18.162" rx="4.383" ry="4.679"/>
<ellipse transform="matrix(0.7072 -0.707 0.707 0.7072 -12.2865 29.5852)" fill="#ED4A24" cx="29.575" cy="29.626" rx="4.382" ry="4.677"/>
<ellipse transform="matrix(0.7071 -0.7071 0.7071 0.7071 -22.8865 25.2014)" fill="#FC9430" cx="18.976" cy="40.226" rx="4.383" ry="4.678"/>
</svg>
