<?xml version="1.0" encoding="utf-8"?>
<!-- Generator: Adobe Illustrator 14.0.0, SVG Export Plug-In . SVG Version: 6.00 Build 43363)  -->
<!DOCTYPE svg PUBLIC "-//W3C//DTD SVG 1.1//EN" "http://www.w3.org/Graphics/SVG/1.1/DTD/svg11.dtd">
<svg version="1.1" id="Ebene_1" xmlns="http://www.w3.org/2000/svg" xmlns:xlink="http://www.w3.org/1999/xlink" x="0px" y="0px"
	 width="192.37px" height="47.718px" viewBox="0 0 192.37 47.718" enable-background="new 0 0 192.37 47.718" xml:space="preserve">
<ellipse transform="matrix(-0.7071 -0.7071 0.7071 -0.7071 38.1882 26.4572)" fill="#F8326D" cx="24.573" cy="5.32" rx="3.846" ry="3.603"/>
<ellipse transform="matrix(-0.7071 -0.7071 0.7071 -0.7071 15.4352 35.8817)" fill="#FFB142" cx="15.149" cy="14.744" rx="3.847" ry="3.604"/>
<ellipse transform="matrix(-0.7072 -0.707 0.707 -0.7072 -5.6009 44.6004)" fill="#F8326D" cx="6.435" cy="23.46" rx="3.846" ry="3.604"/>
<ellipse transform="matrix(-0.7072 -0.707 0.707 -0.7072 48.0657 50.3)" fill="#FFB142" cx="34.449" cy="15.197" rx="3.847" ry="3.603"/>
<ellipse transform="matrix(-0.707 -0.7072 0.7072 -0.707 25.304 59.7279)" fill="#F8326D" cx="25.024" cy="24.622" rx="3.845" ry="3.603"/>
<ellipse transform="matrix(-0.7071 -0.7071 0.7071 -0.7071 4.2678 68.4407)" fill="#FFB142" cx="16.309" cy="33.336" rx="3.846" ry="3.604"/>
<g id="XMLID_11_">
	<linearGradient id="SVGID_1_" gradientUnits="userSpaceOnUse" x1="44.6978" y1="28.8384" x2="176.5585" y2="28.8384">
		<stop  offset="0.0303" style="stop-color:#F72274"/>
		<stop  offset="0.6182" style="stop-color:#FFBB3F"/>
		<stop  offset="0.8303" style="stop-color:#FD2274"/>
		<stop  offset="0.9515" style="stop-color:#F72274"/>
	</linearGradient>
	<path fill="url(#SVGID_1_)" d="M174.357,11.885c0.041,0.041,0,0,0.041,0.041c0,0-2.319,5.323-2.319,5.421L160.04,46.55h-5.124
		l13.401-32.223c0.437-1.123,0.957-1.931,1.566-2.442c0.61-0.503,1.362-0.759,2.245-0.759
		C173.02,11.126,173.762,11.382,174.357,11.885z"/>
	<linearGradient id="SVGID_2_" gradientUnits="userSpaceOnUse" x1="46.4741" y1="24.7417" x2="176.5343" y2="24.7417">
		<stop  offset="0.0303" style="stop-color:#F72274"/>
		<stop  offset="0.6182" style="stop-color:#FFBB3F"/>
		<stop  offset="0.8303" style="stop-color:#FD2274"/>
		<stop  offset="0.9515" style="stop-color:#F72274"/>
	</linearGradient>
	<path fill="url(#SVGID_2_)" d="M162.25,11.159l-9.266,23.964c-0.438,1.121-0.958,1.938-1.568,2.441
		c-0.61,0.513-1.361,0.76-2.252,0.76c-0.884,0-1.626-0.247-2.22-0.76c-0.595-0.503-1.106-1.32-1.535-2.441l-9.226-23.964h5.091
		l7.946,20.951l7.914-20.951H162.25z"/>
	<linearGradient id="SVGID_3_" gradientUnits="userSpaceOnUse" x1="46.646" y1="24.853" x2="176.0726" y2="24.853">
		<stop  offset="0.0303" style="stop-color:#F72274"/>
		<stop  offset="0.6182" style="stop-color:#FFBB3F"/>
		<stop  offset="0.8303" style="stop-color:#FD2274"/>
		<stop  offset="0.9515" style="stop-color:#F72274"/>
	</linearGradient>
	<path fill="url(#SVGID_3_)" d="M132.968,11.143v14.3c0,4.034-1.066,7.228-3.211,9.588c-2.137,2.352-5.009,3.532-8.606,3.532
		c-3.581,0-6.437-1.181-8.565-3.532c-2.13-2.36-3.193-5.554-3.193-9.588v-14.3h4.943v15.207c0,2.188,0.651,3.971,1.938,5.349
		c1.296,1.369,2.938,2.063,4.936,2.063c2.021,0,3.663-0.693,4.933-2.063c1.271-1.378,1.906-3.161,1.906-5.349V11.143H132.968z"/>
	<linearGradient id="SVGID_4_" gradientUnits="userSpaceOnUse" x1="46.502" y1="24.853" x2="175.9253" y2="24.853">
		<stop  offset="0.0303" style="stop-color:#F72274"/>
		<stop  offset="0.6182" style="stop-color:#FFBB3F"/>
		<stop  offset="0.8303" style="stop-color:#FD2274"/>
		<stop  offset="0.9515" style="stop-color:#F72274"/>
	</linearGradient>
	<path fill="url(#SVGID_4_)" d="M103.311,11.143v14.3c0,4.034-1.064,7.228-3.21,9.588c-2.137,2.352-5.009,3.532-8.607,3.532
		c-3.581,0-6.436-1.181-8.565-3.532c-2.129-2.36-3.193-5.554-3.193-9.588v-14.3h4.942v15.207c0,2.188,0.652,3.971,1.939,5.349
		c1.295,1.369,2.937,2.063,4.934,2.063c2.014,0,3.665-0.693,4.934-2.063c1.271-1.378,1.907-3.161,1.907-5.349V11.143H103.311z"/>
	<linearGradient id="SVGID_5_" gradientUnits="userSpaceOnUse" x1="45.6489" y1="19.5288" x2="178.6174" y2="19.5288">
		<stop  offset="0.0303" style="stop-color:#F72274"/>
		<stop  offset="0.6182" style="stop-color:#FFBB3F"/>
		<stop  offset="0.8303" style="stop-color:#FD2274"/>
		<stop  offset="0.9515" style="stop-color:#F72274"/>
	</linearGradient>
	<path fill="url(#SVGID_5_)" d="M73.793,14.25v24.074h-5.066V13.314c0-2.252-0.655-4.088-1.964-5.5
		c-1.309-1.419-3.009-2.134-5.083-2.134c-2.057,0-3.757,0.714-5.083,2.134c-1.326,1.411-1.998,3.247-1.998,5.5v25.009h-5.091V14.25
		c0-4.157,1.105-7.446,3.314-9.878c2.219-2.422,5.169-3.638,8.858-3.638c3.69,0,6.631,1.216,8.824,3.638
		C72.696,6.804,73.793,10.093,73.793,14.25z"/>
	<g id="XMLID_12_">
		<g>
			<linearGradient id="SVGID_6_" gradientUnits="userSpaceOnUse" x1="244.9146" y1="16.8145" x2="139.9824" y2="31.5617">
				<stop  offset="0.0303" style="stop-color:#FFA654"/>
				<stop  offset="0.3939" style="stop-color:#E629D4"/>
				<stop  offset="0.6182" style="stop-color:#D900FF"/>
				<stop  offset="0.8303" style="stop-color:#D12274"/>
				<stop  offset="0.9515" style="stop-color:#F72274"/>
			</linearGradient>
			<path fill="url(#SVGID_6_)" d="M185.025,38.341l0.025,0.042l-5.108,0.017l-0.008-0.083l-7.271-18.995l2.492-5.859
				c0.537,0.512,0.727,1.089,1.122,2.137L185.025,38.341z"/>
		</g>
		<g>
		</g>
	</g>
</g>
<path fill="#D12274" d="M176.276,15.599l8.747,22.742l0.024,0.044l-5.106,0.014l-0.007-0.079l-7.272-18.999l2.492-5.859
	C175.69,13.973,175.879,14.551,176.276,15.599z"/>
</svg>
