<?xml version="1.0" encoding="utf-8"?>
<!-- Generator: Adobe Illustrator 14.0.0, SVG Export Plug-In . SVG Version: 6.00 Build 43363)  -->
<!DOCTYPE svg PUBLIC "-//W3C//DTD SVG 1.1//EN" "http://www.w3.org/Graphics/SVG/1.1/DTD/svg11.dtd">
<svg version="1.1" id="Ebene_1" xmlns="http://www.w3.org/2000/svg" xmlns:xlink="http://www.w3.org/1999/xlink" x="0px" y="0px"
	 width="637.795px" height="158.74px" viewBox="0 0 637.795 158.74" enable-background="new 0 0 637.795 158.74"
	 xml:space="preserve">
<linearGradient id="SVGID_1_" gradientUnits="userSpaceOnUse" x1="585.7891" y1="80.0059" x2="646.0139" y2="98.4184">
	<stop  offset="0" style="stop-color:#ED383D"/>
	<stop  offset="1" style="stop-color:#F59E4F"/>
</linearGradient>
<path fill="url(#SVGID_1_)" d="M635.666,132.262l-31.914-82.977c-1.389-3.604-2.036-5.601-3.905-7.374l-8.613,20.284l26.814,70.066
	H635.666z"/>
<linearGradient id="SVGID_2_" gradientUnits="userSpaceOnUse" x1="212.3794" y1="229.665" x2="186.858" y2="-501.171">
	<stop  offset="0" style="stop-color:#ED383D"/>
	<stop  offset="1" style="stop-color:#F59E4F"/>
</linearGradient>
<path fill="url(#SVGID_2_)" d="M166.638,129.757V48.834c0-13.961,3.719-25.024,11.158-33.183
	c7.442-8.155,17.354-12.238,29.755-12.238c12.4,0,22.284,4.083,29.656,12.238c7.374,8.159,11.063,19.222,11.063,33.183v80.923
	h-17.032v-84.06c0-7.568-2.205-13.73-6.607-18.494c-4.403-4.764-10.095-7.147-17.08-7.147c-6.919,0-12.611,2.383-17.08,7.147
	c-4.469,4.764-6.705,10.926-6.705,18.494v84.06H166.638z"/>
<linearGradient id="SVGID_3_" gradientUnits="userSpaceOnUse" x1="319.6289" y1="332.6641" x2="299.8092" y2="-234.8961">
	<stop  offset="0" style="stop-color:#ED383D"/>
	<stop  offset="1" style="stop-color:#F59E4F"/>
</linearGradient>
<path fill="url(#SVGID_3_)" d="M350.942,33.734v52.37c0,13.965-3.697,25.023-11.104,33.182
	c-7.412,8.156-17.344,12.234-29.807,12.234c-12.395,0-22.278-4.078-29.66-12.234c-7.372-8.158-11.057-19.217-11.057-33.182v-52.37
	h17.13V89.24c0,7.566,2.234,13.729,6.703,18.495c4.471,4.761,10.162,7.146,17.084,7.146c6.981,0,12.671-2.385,17.074-7.146
	c4.404-4.766,6.607-10.929,6.607-18.495V33.734H350.942z"/>
<linearGradient id="SVGID_4_" gradientUnits="userSpaceOnUse" x1="426.6577" y1="457.3311" x2="406.8387" y2="-110.2103">
	<stop  offset="0" style="stop-color:#ED383D"/>
	<stop  offset="1" style="stop-color:#F59E4F"/>
</linearGradient>
<path fill="url(#SVGID_4_)" d="M453.619,33.734v52.37c0,13.965-3.697,25.023-11.105,33.182c-7.412,8.156-17.34,12.234-29.801,12.234
	c-12.4,0-22.284-4.078-29.666-12.234c-7.373-8.158-11.059-19.217-11.059-33.182v-52.37h17.132V89.24
	c0,7.566,2.234,13.729,6.706,18.495c4.467,4.761,10.159,7.146,17.088,7.146c6.977,0,12.666-2.385,17.073-7.146
	c4.401-4.766,6.604-10.929,6.604-18.495V33.734H453.619z"/>
<linearGradient id="SVGID_5_" gradientUnits="userSpaceOnUse" x1="526.0186" y1="511.4229" x2="508.741" y2="16.6603">
	<stop  offset="0" style="stop-color:#ED383D"/>
	<stop  offset="1" style="stop-color:#F59E4F"/>
</linearGradient>
<path fill="url(#SVGID_5_)" d="M481.904,35.692l27.505,72.545l27.402-72.545h17.715l-32.095,82.975
	c-1.505,3.888-3.312,6.704-5.432,8.456c-2.12,1.758-4.719,2.634-7.781,2.634c-3.067,0-5.638-0.876-7.691-2.634
	c-2.054-1.752-3.827-4.568-5.328-8.456l-31.916-82.975H481.904z"/>
<linearGradient id="SVGID_6_" gradientUnits="userSpaceOnUse" x1="599.8926" y1="1158.9805" x2="562.728" y2="94.7304">
	<stop  offset="0" style="stop-color:#ED383D"/>
	<stop  offset="1" style="stop-color:#F59E4F"/>
</linearGradient>
<path fill="url(#SVGID_6_)" d="M596.417,38.227c-2.053-1.754-4.624-2.63-7.69-2.63c-3.064,0-5.663,0.876-7.783,2.63
	c-2.119,1.754-3.926,4.57-5.434,8.46L529.138,158.22h17.714l41.682-101.102l0,0c-0.025-0.265,8.033-18.759,8.033-18.759
	C596.421,38.219,596.566,38.359,596.417,38.227z"/>
<ellipse transform="matrix(0.7071 -0.7071 0.7071 0.7071 11.2145 60.6001)" fill="#ED4A24" cx="78.758" cy="16.763" rx="12.521" ry="13.365"/>
<path fill="#FC9430" d="M54.864,40.656c5.22,5.221,5.488,13.416,0.598,18.308c-4.89,4.89-13.084,4.623-18.306-0.6
	c-5.219-5.219-5.486-13.412-0.597-18.302C41.45,35.171,49.645,35.438,54.864,40.656z"/>
<path fill="#ED4A24" d="M24.583,70.937c5.22,5.221,5.486,13.416,0.594,18.308c-4.89,4.892-13.083,4.625-18.302-0.598
	c-5.221-5.221-5.488-13.415-0.598-18.308C11.168,65.451,19.363,65.718,24.583,70.937z"/>
<path fill="#FC9430" d="M121.926,42.221c5.22,5.221,5.488,13.418,0.595,18.31c-4.888,4.886-13.082,4.619-18.301-0.6
	c-5.222-5.223-5.488-13.419-0.599-18.304C108.512,36.735,116.706,37.004,121.926,42.221z"/>
<path fill="#ED4A24" d="M89.178,74.973c5.22,5.219,5.486,13.411,0.596,18.303c-4.888,4.893-13.083,4.626-18.303-0.595
	c-5.221-5.22-5.488-13.414-0.6-18.306C75.763,69.482,83.958,69.748,89.178,74.973z"/>
<path fill="#FC9430" d="M58.897,105.251c5.219,5.225,5.485,13.416,0.595,18.308c-4.887,4.886-13.084,4.623-18.303-0.596
	c-5.221-5.221-5.487-13.416-0.598-18.308C45.482,99.764,53.676,100.03,58.897,105.251z"/>
</svg>
