<?xml version="1.0" encoding="utf-8"?>
<!-- Generator: Adobe Illustrator 14.0.0, SVG Export Plug-In . SVG Version: 6.00 Build 43363)  -->
<!DOCTYPE svg PUBLIC "-//W3C//DTD SVG 1.1//EN" "http://www.w3.org/Graphics/SVG/1.1/DTD/svg11.dtd">
<svg version="1.1" id="Ebene_1" xmlns="http://www.w3.org/2000/svg" xmlns:xlink="http://www.w3.org/1999/xlink" x="0px" y="0px"
	 width="204.644px" height="54.164px" viewBox="0 -6.446 204.644 54.164" enable-background="new 0 -6.446 204.644 54.164"
	 xml:space="preserve">
<g>
	<linearGradient id="SVGID_1_" gradientUnits="userSpaceOnUse" x1="11.1929" y1="-0.3193" x2="48.5412" y2="47.4843">
		<stop  offset="0.0303" style="stop-color:#F72274"/>
		<stop  offset="0.2727" style="stop-color:#F8326F"/>
		<stop  offset="0.9333" style="stop-color:#FFBB3F"/>
	</linearGradient>
	<path fill="url(#SVGID_1_)" d="M3.434,29.118c0.403-0.238,2.652,0,4.599-8.693v-0.138l0.15-0.465C10.061,14,13.229,6.26,19.01,6.26
		c5.799,0,8.968,7.74,10.847,13.562l0.061,0.209c2.373,7.297,3.02,9.086,4.723,9.015c1.458-0.09,2.531,0.071,4.746-9.137
		l0.004-0.014c0.001,0,0.001,0,0.001-0.001c1.603-4.961,4.147-11.202,8.447-12.901C43.266,0.294,35.571-4.208,26.849-4.208
		c-14.026,0-25.398,11.371-25.398,25.397c0,2.401,0.334,4.722,0.956,6.923C2.92,28.771,3.281,29.028,3.434,29.118z"/>
	<linearGradient id="SVGID_2_" gradientUnits="userSpaceOnUse" x1="9.9683" y1="0.9707" x2="47.5081" y2="49.0195">
		<stop  offset="0.0303" style="stop-color:#F72274"/>
		<stop  offset="0.2727" style="stop-color:#F8326F"/>
		<stop  offset="0.9333" style="stop-color:#FFBB3F"/>
	</linearGradient>
	<path fill="url(#SVGID_2_)" d="M50.116,12.776c-1.506-0.2-2.295,1.748-4.65,9.036l-0.007,0.021c0,0.002,0,0.002,0,0.002
		c-1.881,5.816-5.049,13.527-10.817,13.527c-5.798,0-8.968-7.741-10.846-13.564l-0.062-0.208c-2.373-7.297-2.891-9.015-4.722-9.015
		c-2.281,0-2.277,1.677-4.601,8.691v0.139l-0.149,0.464c-1.633,5.062-4.063,12.471-8.691,13.187
		C10.103,42,17.939,46.588,26.849,46.588c14.027,0,25.397-11.37,25.397-25.399c0-2.557-0.38-5.026-1.083-7.354
		C50.644,13.154,50.277,12.876,50.116,12.776z"/>
</g>
<g id="XMLID_1_">
	<linearGradient id="SVGID_3_" gradientUnits="userSpaceOnUse" x1="62.4097" y1="30.2515" x2="192.9815" y2="30.2515">
		<stop  offset="0.0303" style="stop-color:#F72274"/>
		<stop  offset="0.6182" style="stop-color:#FFBB3F"/>
		<stop  offset="0.8303" style="stop-color:#FD2274"/>
		<stop  offset="0.9515" style="stop-color:#F72274"/>
	</linearGradient>
	<path fill="url(#SVGID_3_)" d="M190.803,14.555c0.039,0.041,0,0,0.039,0.041c0,0-2.296,5.271-2.296,5.368l-11.921,26.735h-5.075
		l13.271-29.725c0.432-1.111,0.947-1.912,1.551-2.418c0.604-0.499,1.35-0.752,2.225-0.752
		C189.477,13.803,190.212,14.057,190.803,14.555z"/>
	<linearGradient id="SVGID_4_" gradientUnits="userSpaceOnUse" x1="64.2427" y1="27.2856" x2="193.0262" y2="27.2856">
		<stop  offset="0.0303" style="stop-color:#F72274"/>
		<stop  offset="0.6182" style="stop-color:#FFBB3F"/>
		<stop  offset="0.8303" style="stop-color:#FD2274"/>
		<stop  offset="0.9515" style="stop-color:#F72274"/>
	</linearGradient>
	<path fill="url(#SVGID_4_)" d="M178.882,13.836l-9.174,23.73c-0.434,1.109-0.948,1.919-1.554,2.416
		c-0.603,0.508-1.348,0.753-2.229,0.753c-0.875,0-1.61-0.245-2.198-0.753c-0.587-0.497-1.095-1.307-1.52-2.416l-9.136-23.73h5.04
		l7.869,20.746l7.837-20.746H178.882z"/>
	<linearGradient id="SVGID_5_" gradientUnits="userSpaceOnUse" x1="64.6855" y1="27.396" x2="192.8416" y2="27.396">
		<stop  offset="0.0303" style="stop-color:#F72274"/>
		<stop  offset="0.6182" style="stop-color:#FFBB3F"/>
		<stop  offset="0.8303" style="stop-color:#FD2274"/>
		<stop  offset="0.9515" style="stop-color:#F72274"/>
	</linearGradient>
	<path fill="url(#SVGID_5_)" d="M150.161,13.82v14.16c0,3.995-1.056,7.158-3.18,9.494c-2.115,2.328-4.96,3.497-8.522,3.497
		c-3.545,0-6.374-1.169-8.48-3.497c-2.109-2.336-3.162-5.499-3.162-9.494V13.82h4.895v15.057c0,2.166,0.644,3.932,1.92,5.297
		c1.283,1.354,2.908,2.041,4.885,2.041c2.004,0,3.629-0.687,4.887-2.041c1.259-1.365,1.887-3.131,1.887-5.297V13.82H150.161z"/>
	<linearGradient id="SVGID_6_" gradientUnits="userSpaceOnUse" x1="65.9077" y1="27.396" x2="194.0551" y2="27.396">
		<stop  offset="0.0303" style="stop-color:#F72274"/>
		<stop  offset="0.6182" style="stop-color:#FFBB3F"/>
		<stop  offset="0.8303" style="stop-color:#FD2274"/>
		<stop  offset="0.9515" style="stop-color:#F72274"/>
	</linearGradient>
	<path fill="url(#SVGID_6_)" d="M122.157,13.82v14.16c0,3.995-1.053,7.158-3.177,9.494c-2.117,2.328-4.96,3.497-8.522,3.497
		c-3.546,0-6.374-1.169-8.482-3.497c-2.108-2.336-3.161-5.499-3.161-9.494V13.82h4.894v15.057c0,2.166,0.646,3.932,1.92,5.297
		c1.284,1.354,2.909,2.041,4.886,2.041c1.995,0,3.629-0.687,4.887-2.041c1.26-1.365,1.888-3.131,1.888-5.297V13.82H122.157z"/>
	<linearGradient id="SVGID_7_" gradientUnits="userSpaceOnUse" x1="62.1079" y1="19.9009" x2="209.9755" y2="19.9009">
		<stop  offset="0.0303" style="stop-color:#F72274"/>
		<stop  offset="0.6182" style="stop-color:#FFBB3F"/>
		<stop  offset="0.8303" style="stop-color:#FD2274"/>
		<stop  offset="0.9515" style="stop-color:#F72274"/>
	</linearGradient>
	<path fill="url(#SVGID_7_)" d="M93.406,14.031v26.771h-5.634V12.99c0-2.505-0.728-4.547-2.184-6.116
		C84.133,5.295,82.243,4.5,79.936,4.5c-2.289,0-4.179,0.795-5.654,2.374c-1.475,1.569-2.222,3.611-2.222,6.116v27.812h-5.661V14.031
		c0-4.623,1.229-8.281,3.686-10.985c2.467-2.694,5.749-4.046,9.851-4.046c4.104,0,7.375,1.352,9.813,4.046
		C92.187,5.75,93.406,9.408,93.406,14.031z"/>
	<g id="XMLID_2_">
		<g>
			<linearGradient id="SVGID_8_" gradientUnits="userSpaceOnUse" x1="260.6694" y1="19.4341" x2="156.7713" y2="34.036">
				<stop  offset="0.0303" style="stop-color:#FFA654"/>
				<stop  offset="0.3939" style="stop-color:#E629D4"/>
				<stop  offset="0.6182" style="stop-color:#D900FF"/>
				<stop  offset="0.8303" style="stop-color:#D12274"/>
				<stop  offset="0.9515" style="stop-color:#F72274"/>
			</linearGradient>
			<path fill="url(#SVGID_8_)" d="M201.371,40.75l0.024,0.041l-5.058,0.017l-0.009-0.082l-7.198-18.809l2.468-5.801
				c0.531,0.506,0.719,1.078,1.111,2.116L201.371,40.75z"/>
		</g>
		<g>
		</g>
	</g>
</g>
<path fill="#D12274" d="M192.839,18.232l8.661,22.52l0.023,0.043l-5.057,0.015l-0.006-0.079l-7.202-18.812l2.468-5.802
	C192.258,16.623,192.448,17.194,192.839,18.232z"/>
</svg>
